<svg width="21" height="21" viewBox="0 0 21 21" fill="none" xmlns="http://www.w3.org/2000/svg">
<g clip-path="url(#clip0_4930_22972)">
<path d="M20.2953 8.8286C19.5433 7.59715 18.5947 6.49716 17.4871 5.57231L19.8196 3.23986C20.1392 2.90892 20.13 2.38158 19.7991 2.06197C19.4763 1.75018 18.9645 1.75018 18.6417 2.06197L16.1051 4.60185C14.5327 3.6679 12.735 3.18109 10.9062 3.19405C5.74896 3.19405 2.81006 6.72442 1.51721 8.82864C0.702595 10.1462 0.702595 11.8111 1.51721 13.1287C2.26924 14.3602 3.21783 15.4602 4.32535 16.385L1.9929 18.7175C1.66197 19.0371 1.65279 19.5645 1.9724 19.8954C2.29201 20.2263 2.81939 20.2355 3.15028 19.9159C3.15723 19.9091 3.16406 19.9023 3.17078 19.8954L5.71316 17.353C7.28363 18.2868 9.07913 18.7744 10.9062 18.7633C16.0635 18.7633 19.0024 15.2329 20.2952 13.1287C21.1099 11.8111 21.1099 10.1462 20.2953 8.8286ZM5.90812 10.9787C5.9034 8.22285 8.13355 5.98501 10.8894 5.98029C11.9321 5.97849 12.9491 6.30341 13.7977 6.90935L12.5881 8.11891C12.0804 7.81269 11.4992 7.64947 10.9063 7.64658C9.06602 7.64658 7.57419 9.13841 7.57419 10.9787C7.57708 11.5716 7.7403 12.1528 8.04651 12.6605L6.83696 13.8701C6.23297 13.0269 5.90816 12.0158 5.90812 10.9787ZM10.9063 15.9768C9.86912 15.9768 8.85801 15.652 8.01484 15.048L9.22439 13.8384C9.73217 14.1446 10.3133 14.3079 10.9063 14.3107C12.7465 14.3107 14.2384 12.8189 14.2384 10.9787C14.2355 10.3857 14.0722 9.80457 13.766 9.29679L14.9756 8.08724C16.5771 10.3299 16.0573 13.4463 13.8146 15.0477C12.9661 15.6537 11.949 15.9786 10.9063 15.9768Z" fill="white"/>
</g>
<defs>
<clipPath id="clip0_4930_22972">
<rect width="20" height="20" fill="white" transform="translate(0.90625 0.988281)"/>
</clipPath>
</defs>
</svg>
