<svg width="14" height="13" viewBox="0 0 14 13" fill="none" xmlns="http://www.w3.org/2000/svg">
<g clip-path="url(#clip0_5156_6624)">
<path d="M7.00109 0.00390625C5.44215 0.00549031 3.94754 0.579193 2.8452 1.59914C1.74285 2.61909 1.12281 4.00199 1.12109 5.44441C1.12109 8.31808 6.06029 12.263 6.62125 12.7037L7.00109 13.0007L7.38094 12.7037C7.94189 12.263 12.8811 8.31808 12.8811 5.44441C12.8794 4.00199 12.2593 2.61909 11.157 1.59914C10.0546 0.579193 8.56004 0.00549031 7.00109 0.00390625ZM7.00109 8.16466C6.41962 8.16466 5.8512 8.00512 5.36772 7.70622C4.88424 7.40731 4.50741 6.98247 4.28489 6.48541C4.06237 5.98834 4.00414 5.44139 4.11758 4.91372C4.23103 4.38604 4.51103 3.90134 4.9222 3.5209C5.33337 3.14047 5.85722 2.88139 6.42753 2.77643C6.99783 2.67147 7.58897 2.72534 8.12618 2.93123C8.6634 3.13711 9.12256 3.48578 9.44561 3.93312C9.76867 4.38046 9.94109 4.9064 9.94109 5.44441C9.94016 6.1656 9.63011 6.85701 9.07896 7.36696C8.5278 7.87692 7.78054 8.1638 7.00109 8.16466Z" fill="white"/>
<path d="M6.99906 7.28364C8.08154 7.28364 8.95906 6.469 8.95906 5.46409C8.95906 4.45917 8.08154 3.64453 6.99906 3.64453C5.91658 3.64453 5.03906 4.45917 5.03906 5.46409C5.03906 6.469 5.91658 7.28364 6.99906 7.28364Z" fill="white"/>
</g>
<defs>
<clipPath id="clip0_5156_6624">
<rect width="14" height="12.9968" fill="white" transform="translate(0 0.00390625)"/>
</clipPath>
</defs>
</svg>
