<svg width="17" height="15" viewBox="0 0 17 15" fill="none" xmlns="http://www.w3.org/2000/svg">
<g clip-path="url(#clip0_5156_6640)">
<path d="M16.2918 7.55218C16.2918 11.1322 13.4163 14.1002 9.6626 14.6388V9.6396H11.4877L11.8352 7.5713H9.6626V6.22931C9.6626 5.66321 9.96625 5.11207 10.9387 5.11207H11.9262V3.35103C11.9262 3.35103 11.0297 3.21115 10.173 3.21115C8.38388 3.21115 7.21511 4.20166 7.21511 5.99438V7.57071H5.22636V9.639H7.21511V14.6382C3.46207 14.099 0.585938 11.1316 0.585938 7.55218C0.585938 3.59074 4.10208 0.378906 8.43885 0.378906C12.7756 0.378906 16.2918 3.59014 16.2918 7.55218Z" fill="white"/>
</g>
<defs>
<clipPath id="clip0_5156_6640">
<rect width="15.7064" height="14.3465" fill="white" transform="translate(0.585938 0.328125)"/>
</clipPath>
</defs>
</svg>
