<svg width="92" height="92" viewBox="0 0 92 92" fill="none" xmlns="http://www.w3.org/2000/svg">
<path d="M90.8506 46.6547C86.9406 50.4947 83.0906 54.4047 79.1906 58.2447C78.5206 58.9047 78.2506 59.5747 78.2506 60.5147C78.3006 65.7447 78.2806 70.9747 78.2706 76.2047C78.2706 78.5847 78.5006 78.2547 76.1306 78.2747C73.5906 78.2847 71.0506 78.2747 68.5106 78.2747C65.8706 78.2747 63.2306 78.3147 60.5906 78.2547C59.6006 78.2347 58.9006 78.5247 58.2006 79.2347C54.4306 83.0747 50.5706 86.8347 46.8206 90.6847C45.9706 91.5547 45.5506 91.6847 44.6306 90.7347C40.9306 86.8947 37.0906 83.1947 33.3706 79.3747C32.5506 78.5347 31.7206 78.2447 30.5806 78.2547C25.3006 78.3047 20.0206 78.2347 14.7406 78.3047C13.4906 78.3247 13.0906 78.0147 13.1106 76.7147C13.1806 71.3347 13.1206 65.9547 13.1606 60.5747C13.1706 59.5747 12.8706 58.8747 12.1606 58.1847C8.29057 54.3747 4.49057 50.4847 0.600572 46.6947C-0.239428 45.8747 -0.16943 45.4647 0.63057 44.6747C4.51057 40.8847 8.31058 36.9947 12.1906 33.1947C12.9106 32.4847 13.1606 31.7647 13.1606 30.7847C13.1206 25.4047 13.1706 20.0247 13.1206 14.6447C13.1006 13.4947 13.3606 13.0847 14.6006 13.1047C20.0306 13.1747 25.4706 13.1147 30.9006 13.1547C31.8406 13.1647 32.4906 12.8847 33.1506 12.2147C36.9606 8.34469 40.8406 4.54471 44.6506 0.664706C45.4306 -0.135294 45.8606 -0.285313 46.7406 0.614687C50.5206 4.51469 54.4106 8.30469 58.2206 12.1747C58.9206 12.8947 59.6206 13.1647 60.6106 13.1547C65.8906 13.1147 71.1706 13.1847 76.4506 13.1047C77.8606 13.0747 78.3506 13.3547 78.3206 14.8947C78.2106 20.2247 78.2906 25.5547 78.2606 30.8847C78.2506 31.8247 78.5206 32.4847 79.1906 33.1447C83.1006 36.9947 86.9406 40.9047 90.8506 44.7447C91.6206 45.4947 91.6106 45.9047 90.8506 46.6547Z" fill="white"/>
<path d="M75.9366 45.8574C73.3166 48.4274 70.7366 51.0473 68.1266 53.6273C67.6766 54.0673 67.4966 54.5173 67.4966 55.1473C67.5266 58.6473 67.5166 62.1473 67.5066 65.6473C67.5066 67.2373 67.6666 67.0273 66.0766 67.0373C64.3766 67.0473 62.6766 67.0373 60.9766 67.0373C59.2066 67.0373 57.4366 67.0673 55.6766 67.0273C55.0066 67.0073 54.5366 67.1973 54.0666 67.6773C51.5466 70.2473 48.9666 72.7673 46.4466 75.3473C45.8866 75.9273 45.5966 76.0073 44.9866 75.3773C42.5066 72.8073 39.9366 70.3273 37.4466 67.7773C36.8966 67.2073 36.3366 67.0174 35.5766 67.0174C32.0366 67.0574 28.4966 67.0073 24.9666 67.0573C24.1266 67.0673 23.8666 66.8573 23.8766 65.9873C23.9266 62.3873 23.8766 58.7873 23.9066 55.1773C23.9166 54.5173 23.7166 54.0474 23.2366 53.5774C20.6466 51.0274 18.1066 48.4273 15.4966 45.8874C14.9366 45.3374 14.9766 45.0573 15.5166 44.5373C18.1166 41.9973 20.6566 39.3973 23.2566 36.8473C23.7366 36.3673 23.9166 35.8873 23.9066 35.2373C23.8865 31.6273 23.9166 28.0273 23.8766 24.4273C23.8666 23.6573 24.0466 23.3873 24.8766 23.3973C28.5166 23.4373 32.1466 23.3973 35.7866 23.4273C36.4166 23.4373 36.8565 23.2474 37.2965 22.7974C39.8465 20.2074 42.4466 17.6573 44.9966 15.0573C45.5166 14.5273 45.8066 14.4273 46.3966 15.0273C48.9266 17.6373 51.5366 20.1773 54.0866 22.7773C54.5566 23.2473 55.0266 23.4373 55.6866 23.4273C59.2166 23.3973 62.7566 23.4474 66.2866 23.3874C67.2366 23.3773 67.5566 23.5673 67.5366 24.5873C67.4666 28.1573 67.5266 31.7274 67.4966 35.2974C67.4966 35.9274 67.6766 36.3773 68.1266 36.8173C70.7466 39.3973 73.3166 42.0174 75.9366 44.5774C76.4466 45.0874 76.4466 45.3574 75.9366 45.8574Z" fill="white"/>
<path d="M63.1947 56.5565C63.1447 56.6265 63.0947 56.6966 63.0447 56.7566C62.6247 57.2866 62.2247 57.8266 61.7847 58.3266C61.3947 58.7666 60.9647 59.1766 60.5547 59.5966C59.8947 60.2566 59.1647 60.8366 58.4047 61.3766C57.9147 61.7266 57.3947 62.0166 56.8747 62.3266C56.5547 62.5166 56.2347 62.6965 55.9047 62.8665C55.5647 63.0365 55.2147 63.1865 54.8647 63.3365C54.4747 63.5065 54.0947 63.6665 53.6947 63.8065C53.3947 63.9165 53.0747 63.9965 52.7747 64.0865C52.5547 64.1465 52.3447 64.2166 52.1247 64.2666C51.6047 64.3866 51.0847 64.4866 50.5647 64.5966C50.4447 64.6266 50.3147 64.6466 50.1847 64.6666C49.8147 64.7066 49.4447 64.7566 49.0647 64.7866C48.5047 64.8266 47.9447 64.8766 47.3847 64.8766C46.8547 64.8766 46.3347 64.8366 45.8047 64.7966C45.5947 64.7866 45.3747 64.7566 45.1647 64.7266C44.7547 64.6666 44.3347 64.6166 43.9347 64.5466C43.5347 64.4766 43.1347 64.3965 42.7447 64.3065C42.5847 64.2766 42.4347 64.2165 42.2747 64.1765C42.0047 64.0965 41.7247 64.0366 41.4647 63.9466C41.0647 63.8066 40.6747 63.6566 40.2847 63.4966C39.9347 63.3566 39.5747 63.2165 39.2347 63.0565C38.9447 62.9265 38.6647 62.7866 38.3847 62.6266C37.7747 62.2666 37.1547 61.9166 36.5647 61.5166C36.0447 61.1666 35.5547 60.7766 35.0847 60.3766C34.6047 59.9766 34.1547 59.5466 33.7047 59.1066C33.0947 58.5266 32.5747 57.8765 32.0547 57.2065C31.5247 56.5165 31.0347 55.7866 30.6147 55.0166C30.3447 54.5066 30.0647 53.9966 29.8447 53.4666C29.5347 52.7266 29.2547 51.9766 28.9847 51.2266C28.8547 50.8566 28.7847 50.4665 28.7047 50.0865C28.5847 49.5665 28.4647 49.0366 28.3847 48.5066C28.3147 48.0666 28.2547 47.6066 28.2447 47.1566C28.2147 46.2966 28.2047 45.4365 28.2147 44.5865C28.2147 44.2265 28.2847 43.8766 28.3247 43.5166C28.3647 43.1466 28.4047 42.7665 28.4647 42.3965C28.5147 42.0765 28.5947 41.7565 28.6647 41.4265C28.7047 41.2365 28.7547 41.0466 28.8047 40.8566C28.9447 40.3466 29.0847 39.8266 29.2547 39.3266C29.3947 38.9066 29.5647 38.5066 29.7447 38.1066C29.9747 37.6066 30.2047 37.1066 30.4647 36.6266C30.8047 36.0266 31.1647 35.4266 31.5447 34.8466C32.2847 33.7466 33.1547 32.7565 34.1047 31.8365C34.7547 31.2065 35.4347 30.6366 36.1747 30.1266C36.8147 29.6866 37.4547 29.2565 38.1247 28.8665C38.6747 28.5465 39.2547 28.2766 39.8347 28.0366C40.6047 27.7266 41.4047 27.4566 42.1947 27.1866C42.3647 27.1266 42.5547 27.0866 42.7347 27.0466C42.9947 26.9866 43.2647 26.9366 43.5347 26.8866C43.8847 26.8166 44.2347 26.7466 44.5847 26.6866C44.6947 26.6666 44.8047 26.6665 44.9147 26.6465C45.1847 26.6065 45.4547 26.5666 45.7147 26.5266C45.8547 26.5066 45.9947 26.4966 46.1247 26.4966C46.3347 26.4866 46.5547 26.4766 46.7647 26.4766C46.8047 26.4766 46.8547 26.5265 46.8947 26.5565C46.8547 26.5965 46.8347 26.6566 46.7847 26.6666C46.3747 26.7966 45.9547 26.8966 45.5547 27.0466C45.1247 27.2066 44.7047 27.3866 44.3047 27.5966C43.5747 27.9766 42.8447 28.3766 42.1447 28.7966C41.7547 29.0266 41.3947 29.3165 41.0347 29.5865C40.2647 30.1665 39.5547 30.8066 38.9147 31.5266C38.3647 32.1466 37.8447 32.7866 37.3647 33.4666C36.9447 34.0666 36.5747 34.7066 36.2347 35.3566C35.9647 35.8666 35.7447 36.4066 35.5247 36.9366C35.3847 37.2766 35.2747 37.6366 35.1547 37.9966C35.0347 38.3566 34.9147 38.7066 34.8247 39.0666C34.7447 39.3866 34.6947 39.7066 34.6347 40.0366C34.5747 40.3866 34.4947 40.7266 34.4547 41.0766C34.3647 41.9566 34.2447 42.8265 34.3147 43.7065C34.3647 44.3565 34.3847 45.0166 34.4647 45.6566C34.5347 46.1866 34.6547 46.6966 34.7747 47.2166C34.8947 47.7466 35.0147 48.2766 35.1947 48.7866C35.4447 49.4766 35.7147 50.1566 36.0247 50.8166C36.2947 51.3966 36.5947 51.9666 36.9447 52.5066C37.3647 53.1566 37.8047 53.7866 38.2947 54.3766C38.8947 55.1166 39.5447 55.8166 40.3047 56.4166C40.7947 56.8066 41.2647 57.2166 41.7847 57.5666C42.3447 57.9466 42.9347 58.2966 43.5347 58.6266C43.9847 58.8766 44.4547 59.1166 44.9347 59.3065C45.4547 59.5165 45.9947 59.6966 46.5347 59.8566C47.0147 59.9966 47.5047 60.1066 47.9947 60.2266C48.3147 60.3066 48.6447 60.3866 48.9747 60.4366C49.6747 60.5366 50.3747 60.6166 51.0847 60.6066C51.2647 60.6066 51.4447 60.6566 51.6147 60.6566C52.0447 60.6466 52.4647 60.6065 52.8947 60.5865C53.1547 60.5665 53.4247 60.5666 53.6847 60.5266C54.1647 60.4665 54.6347 60.4066 55.1047 60.3166C55.5247 60.2366 55.9347 60.1266 56.3447 60.0066C56.8147 59.8666 57.2847 59.7265 57.7447 59.5565C58.1047 59.4265 58.4447 59.2765 58.7947 59.1165C59.1147 58.9765 59.4447 58.8266 59.7447 58.6566C60.3147 58.3366 60.8647 57.9965 61.4247 57.6465C61.9747 57.3065 62.4747 56.9165 62.9547 56.4865C63.0047 56.4465 63.0747 56.4366 63.1347 56.4066C63.1647 56.5066 63.1847 56.5365 63.1947 56.5565Z" fill="#02645E"/>
<path d="M64.0706 71.3832C61.8606 71.3832 59.6506 71.4032 57.4406 71.3732C56.8006 71.3632 56.3706 71.5732 55.9306 72.0132C52.8206 75.1532 49.6606 78.2432 46.5906 81.4232C45.8406 82.2032 45.4906 82.0732 44.8106 81.3832C41.7706 78.2732 38.6606 75.2232 35.6106 72.1232C35.0906 71.6032 34.5806 71.3632 33.8406 71.3732C29.3906 71.4132 24.9306 71.3732 20.4806 71.4132C19.7106 71.4232 19.5106 71.2032 19.5206 70.4432C19.5606 65.9932 19.5206 61.5332 19.5606 57.0832C19.5706 56.3332 19.3206 55.8232 18.8006 55.3132C15.6306 52.1832 12.5106 49.0132 9.33063 45.8932C8.78063 45.3532 8.79063 45.0832 9.33063 44.5432C12.5106 41.4232 15.6306 38.2432 18.8006 35.1232C19.3206 34.6032 19.5606 34.1032 19.5506 33.3532C19.5106 28.9332 19.5506 24.5132 19.5106 20.0932C19.5006 19.2732 19.7406 19.0732 20.5306 19.0832C24.9506 19.1232 29.3706 19.0832 33.7906 19.1132C34.4906 19.1132 34.9906 18.9332 35.4906 18.4232C38.5906 15.2732 41.7606 12.1932 44.8306 9.01319C45.5906 8.23319 45.9506 8.35317 46.6306 9.05317C49.7206 12.2132 52.8706 15.3132 55.9806 18.4532C56.4506 18.9332 56.9306 19.1032 57.5906 19.1032C62.0406 19.0832 66.5006 19.1132 70.9506 19.0732C71.7006 19.0632 71.9306 19.2432 71.9306 20.0332C71.8906 24.4832 71.9306 28.9432 71.9006 33.3932C71.8906 34.1032 72.1206 34.5832 72.6106 35.0732C75.8006 38.2232 78.9606 41.4232 82.1506 44.5732C82.6506 45.0732 82.6706 45.3432 82.1606 45.8432C79.0106 48.9432 75.9106 52.0932 72.7606 55.1932C72.1606 55.7832 71.8806 56.3632 71.8906 57.2232C71.9406 61.6032 71.8906 65.9932 71.9306 70.3832C71.9406 71.1732 71.7406 71.4232 70.9206 71.4032C68.6306 71.3532 66.3506 71.3832 64.0706 71.3832ZM60.9806 67.0332C62.6806 67.0332 64.3806 67.0432 66.0806 67.0332C67.6706 67.0232 67.5106 67.2432 67.5206 65.6432C67.5306 62.1432 67.5406 58.6432 67.5106 55.1432C67.5006 54.5132 67.6906 54.0632 68.1306 53.6232C70.7506 51.0432 73.3206 48.4232 75.9406 45.8532C76.4506 45.3532 76.4606 45.0832 75.9406 44.5732C73.3206 42.0032 70.7406 39.3832 68.1306 36.8032C67.6806 36.3632 67.5006 35.9132 67.5006 35.2832C67.5306 31.7132 67.4706 28.1432 67.5406 24.5732C67.5606 23.5432 67.2406 23.3632 66.2906 23.3732C62.7606 23.4332 59.2206 23.3832 55.6806 23.4132C55.0206 23.4232 54.5506 23.2332 54.0806 22.7532C51.5306 20.1632 48.9206 17.6232 46.3906 15.0132C45.8106 14.4132 45.5206 14.5032 44.9906 15.0432C42.4406 17.6432 39.8506 20.1932 37.2906 22.7832C36.8506 23.2332 36.4106 23.4232 35.7806 23.4132C32.1406 23.3832 28.5006 23.4232 24.8706 23.3732C24.0406 23.3632 23.8706 23.6332 23.8706 24.4032C23.9106 28.0032 23.8706 31.6132 23.9006 35.2132C23.9006 35.8732 23.7306 36.3532 23.2506 36.8232C20.6506 39.3732 18.1106 41.9732 15.5106 44.5132C14.9706 45.0332 14.9306 45.3132 15.4906 45.8632C18.0906 48.4032 20.6406 51.0032 23.2306 53.5532C23.7006 54.0232 23.9106 54.4832 23.9006 55.1532C23.8706 58.7532 23.9106 62.3632 23.8706 65.9632C23.8606 66.8332 24.1206 67.0332 24.9606 67.0232C28.5006 66.9732 32.0306 67.0232 35.5706 66.9932C36.3406 66.9832 36.8906 67.1832 37.4406 67.7432C39.9306 70.2932 42.5006 72.7832 44.9806 75.3432C45.5906 75.9732 45.8806 75.8932 46.4506 75.3132C48.9606 72.7332 51.5406 70.2132 54.0706 67.6432C54.5406 67.1632 55.0106 66.9732 55.6706 66.9832C57.4406 67.0632 59.2106 67.0332 60.9806 67.0332Z" fill="#02645E"/>
</svg>
