<svg width="93" height="93" viewBox="0 0 93 93" fill="none" xmlns="http://www.w3.org/2000/svg">
<path d="M91.7568 47.643C87.8468 51.483 83.9968 55.393 80.0968 59.233C79.4268 59.893 79.1568 60.563 79.1568 61.503C79.2068 66.733 79.1868 71.963 79.1768 77.193C79.1768 79.573 79.4068 79.243 77.0368 79.263C74.4968 79.273 71.9568 79.263 69.4168 79.263C66.7768 79.263 64.1368 79.303 61.4968 79.243C60.5068 79.223 59.8068 79.513 59.1068 80.223C55.3368 84.063 51.4768 87.823 47.7268 91.673C46.8768 92.543 46.4568 92.673 45.5368 91.723C41.8368 87.883 37.9968 84.183 34.2768 80.363C33.4568 79.523 32.6268 79.233 31.4868 79.243C26.2068 79.293 20.9268 79.223 15.6468 79.293C14.3968 79.313 13.9968 79.003 14.0168 77.703C14.0868 72.323 14.0268 66.943 14.0668 61.563C14.0768 60.563 13.7768 59.863 13.0668 59.173C9.19682 55.363 5.39682 51.473 1.50682 47.683C0.666822 46.863 0.73682 46.453 1.53682 45.663C5.41682 41.873 9.21683 37.983 13.0968 34.183C13.8168 33.473 14.0668 32.753 14.0668 31.773C14.0268 26.393 14.0768 21.013 14.0268 15.633C14.0068 14.483 14.2668 14.073 15.5068 14.093C20.9368 14.163 26.3768 14.103 31.8068 14.143C32.7468 14.153 33.3968 13.873 34.0568 13.203C37.8668 9.33298 41.7468 5.53299 45.5568 1.65299C46.3368 0.852987 46.7668 0.702969 47.6468 1.60297C51.4268 5.50297 55.3168 9.29297 59.1268 13.163C59.8268 13.883 60.5268 14.153 61.5168 14.143C66.7968 14.103 72.0768 14.173 77.3568 14.093C78.7668 14.063 79.2568 14.343 79.2268 15.883C79.1168 21.213 79.1968 26.543 79.1668 31.873C79.1568 32.813 79.4268 33.473 80.0968 34.133C84.0068 37.983 87.8468 41.893 91.7568 45.733C92.5268 46.483 92.5168 46.893 91.7568 47.643Z" fill="white"/>
<path d="M76.8428 46.8417C74.2228 49.4117 71.6428 52.0317 69.0328 54.6117C68.5828 55.0517 68.4028 55.5017 68.4028 56.1317C68.4328 59.6317 68.4228 63.1317 68.4128 66.6317C68.4128 68.2217 68.5728 68.0117 66.9828 68.0217C65.2828 68.0317 63.5828 68.0217 61.8828 68.0217C60.1128 68.0217 58.3428 68.0517 56.5828 68.0117C55.9128 67.9917 55.4428 68.1817 54.9728 68.6617C52.4528 71.2317 49.8728 73.7517 47.3528 76.3317C46.7928 76.9117 46.5028 76.9917 45.8928 76.3617C43.4128 73.7917 40.8428 71.3117 38.3528 68.7617C37.8028 68.1917 37.2428 68.0017 36.4828 68.0017C32.9428 68.0417 29.4028 67.9917 25.8728 68.0417C25.0328 68.0517 24.7728 67.8417 24.7828 66.9717C24.8328 63.3717 24.7828 59.7717 24.8128 56.1617C24.8228 55.5017 24.6228 55.0317 24.1428 54.5617C21.5528 52.0117 19.0128 49.4117 16.4028 46.8717C15.8428 46.3217 15.8828 46.0417 16.4228 45.5217C19.0228 42.9817 21.5628 40.3817 24.1628 37.8317C24.6428 37.3517 24.8228 36.8717 24.8128 36.2217C24.7928 32.6117 24.8228 29.0117 24.7828 25.4117C24.7728 24.6417 24.9528 24.3717 25.7828 24.3817C29.4228 24.4217 33.0528 24.3817 36.6928 24.4117C37.3228 24.4217 37.7628 24.2317 38.2028 23.7817C40.7528 21.1917 43.3528 18.6417 45.9028 16.0417C46.4228 15.5117 46.7128 15.4117 47.3028 16.0117C49.8328 18.6217 52.4428 21.1617 54.9928 23.7617C55.4628 24.2317 55.9328 24.4217 56.5928 24.4117C60.1228 24.3817 63.6628 24.4317 67.1928 24.3717C68.1428 24.3617 68.4628 24.5517 68.4428 25.5717C68.3728 29.1417 68.4328 32.7117 68.4028 36.2817C68.4028 36.9117 68.5828 37.3617 69.0328 37.8017C71.6528 40.3817 74.2228 43.0017 76.8428 45.5617C77.3528 46.0717 77.3528 46.3417 76.8428 46.8417Z" fill="white"/>
<path d="M64.1009 57.5409C64.0509 57.6109 64.0009 57.6809 63.9509 57.7409C63.5309 58.2709 63.1309 58.8109 62.6909 59.3109C62.3009 59.7509 61.8709 60.1609 61.4609 60.5809C60.8009 61.2409 60.0709 61.8209 59.3109 62.3609C58.8209 62.7109 58.3009 63.0009 57.7809 63.3109C57.4609 63.5009 57.1409 63.6809 56.8109 63.8509C56.4709 64.0209 56.1209 64.1709 55.7709 64.3209C55.3809 64.4909 55.0009 64.6509 54.6009 64.7909C54.3009 64.9009 53.9809 64.9809 53.6809 65.0709C53.4609 65.1309 53.2509 65.2009 53.0309 65.2509C52.5109 65.3709 51.9909 65.4709 51.4709 65.5809C51.3509 65.6109 51.2209 65.6309 51.0909 65.6509C50.7209 65.6909 50.3509 65.7409 49.9709 65.7709C49.4109 65.8109 48.8509 65.8609 48.2909 65.8609C47.7609 65.8609 47.2409 65.8209 46.7109 65.7809C46.5009 65.7709 46.2809 65.7409 46.0709 65.7109C45.6609 65.6509 45.2409 65.6009 44.8409 65.5309C44.4409 65.4609 44.0409 65.3809 43.6509 65.2909C43.4909 65.2609 43.3409 65.2009 43.1809 65.1609C42.9109 65.0809 42.6309 65.0209 42.3709 64.9309C41.9709 64.7909 41.5809 64.6409 41.1909 64.4809C40.8409 64.3409 40.4809 64.2009 40.1409 64.0409C39.8509 63.9109 39.5709 63.7709 39.2909 63.6109C38.6809 63.2509 38.0609 62.9009 37.4709 62.5009C36.9509 62.1509 36.4609 61.7609 35.9909 61.3609C35.5109 60.9609 35.0609 60.5309 34.6109 60.0909C34.0009 59.5109 33.4809 58.8609 32.9609 58.1909C32.4309 57.5009 31.9409 56.7709 31.5209 56.0009C31.2509 55.4909 30.9709 54.9809 30.7509 54.4509C30.4409 53.7109 30.1609 52.9609 29.8909 52.2109C29.7609 51.8409 29.6909 51.4509 29.6109 51.0709C29.4909 50.5509 29.3709 50.0209 29.2909 49.4909C29.2209 49.0509 29.1609 48.5909 29.1509 48.1409C29.1209 47.2809 29.1109 46.4209 29.1209 45.5709C29.1209 45.2109 29.1909 44.8609 29.2309 44.5009C29.2709 44.1309 29.3109 43.7509 29.3709 43.3809C29.4209 43.0609 29.5009 42.7409 29.5709 42.4109C29.6109 42.2209 29.6609 42.0309 29.7109 41.8409C29.8509 41.3309 29.9909 40.8109 30.1609 40.3109C30.3009 39.8909 30.4709 39.4909 30.6509 39.0909C30.8809 38.5909 31.1109 38.0909 31.3709 37.6109C31.7109 37.0109 32.0709 36.4109 32.4509 35.8309C33.1909 34.7309 34.0609 33.7409 35.0109 32.8209C35.6609 32.1909 36.3409 31.6209 37.0809 31.1109C37.7209 30.6709 38.3609 30.2409 39.0309 29.8509C39.5809 29.5309 40.1609 29.2609 40.7409 29.0209C41.5109 28.7109 42.3109 28.4409 43.1009 28.1709C43.2709 28.1109 43.4609 28.0709 43.6409 28.0309C43.9009 27.9709 44.1709 27.9209 44.4409 27.8709C44.7909 27.8009 45.1409 27.7309 45.4909 27.6709C45.6009 27.6509 45.7109 27.6509 45.8209 27.6309C46.0909 27.5909 46.3609 27.5509 46.6209 27.5109C46.7609 27.4909 46.9009 27.4809 47.0309 27.4809C47.2409 27.4709 47.4609 27.4609 47.6709 27.4609C47.7109 27.4609 47.7609 27.5109 47.8009 27.5409C47.7609 27.5809 47.7409 27.6409 47.6909 27.6509C47.2809 27.7809 46.8609 27.8809 46.4609 28.0309C46.0309 28.1909 45.6109 28.3709 45.2109 28.5809C44.4809 28.9609 43.7509 29.3609 43.0509 29.7809C42.6609 30.0109 42.3009 30.3009 41.9409 30.5709C41.1709 31.1509 40.4609 31.7909 39.8209 32.5109C39.2709 33.1309 38.7509 33.7709 38.2709 34.4509C37.8509 35.0509 37.4809 35.6909 37.1409 36.3409C36.8709 36.8509 36.6509 37.3909 36.4309 37.9209C36.2909 38.2609 36.1809 38.6209 36.0609 38.9809C35.9409 39.3409 35.8209 39.6909 35.7309 40.0509C35.6509 40.3709 35.6009 40.6909 35.5409 41.0209C35.4809 41.3709 35.4009 41.7109 35.3609 42.0609C35.2709 42.9409 35.1509 43.8109 35.2209 44.6909C35.2709 45.3409 35.2909 46.0009 35.3709 46.6409C35.4409 47.1709 35.5609 47.6809 35.6809 48.2009C35.8009 48.7309 35.9209 49.2609 36.1009 49.7709C36.3509 50.4609 36.6209 51.1409 36.9309 51.8009C37.2009 52.3809 37.5009 52.9509 37.8509 53.4909C38.2709 54.1409 38.7109 54.7709 39.2009 55.3609C39.8009 56.1009 40.4509 56.8009 41.2109 57.4009C41.7009 57.7909 42.1709 58.2009 42.6909 58.5509C43.2509 58.9309 43.8409 59.2809 44.4409 59.6109C44.8909 59.8609 45.3609 60.1009 45.8409 60.2909C46.3609 60.5009 46.9009 60.6809 47.4409 60.8409C47.9209 60.9809 48.4109 61.0909 48.9009 61.2109C49.2209 61.2909 49.5509 61.3709 49.8809 61.4209C50.5809 61.5209 51.2809 61.6009 51.9909 61.5909C52.1709 61.5909 52.3509 61.6409 52.5209 61.6409C52.9509 61.6309 53.3709 61.5909 53.8009 61.5709C54.0609 61.5509 54.3309 61.5509 54.5909 61.5109C55.0709 61.4509 55.5409 61.3909 56.0109 61.3009C56.4309 61.2209 56.8409 61.1109 57.2509 60.9909C57.7209 60.8509 58.1909 60.7109 58.6509 60.5409C59.0109 60.4109 59.3509 60.2609 59.7009 60.1009C60.0209 59.9609 60.3509 59.8109 60.6509 59.6409C61.2209 59.3209 61.7709 58.9809 62.3309 58.6309C62.8809 58.2909 63.3809 57.9009 63.8609 57.4709C63.9109 57.4309 63.9809 57.4209 64.0409 57.3909C64.0709 57.4909 64.0909 57.5209 64.1009 57.5409Z" fill="#02645E"/>
<path d="M64.9769 72.3754C62.7669 72.3754 60.5569 72.3954 58.3469 72.3654C57.7069 72.3554 57.2769 72.5654 56.8369 73.0054C53.7269 76.1454 50.5669 79.2354 47.4969 82.4154C46.7469 83.1954 46.3969 83.0654 45.7169 82.3754C42.6769 79.2654 39.5669 76.2154 36.5169 73.1154C35.9969 72.5954 35.4869 72.3554 34.7469 72.3654C30.2969 72.4054 25.8369 72.3654 21.3869 72.4054C20.6169 72.4154 20.4169 72.1954 20.4269 71.4354C20.4669 66.9854 20.4269 62.5254 20.4669 58.0754C20.4769 57.3254 20.2269 56.8154 19.7069 56.3054C16.5369 53.1754 13.4169 50.0053 10.2369 46.8853C9.68688 46.3453 9.69688 46.0754 10.2369 45.5354C13.4169 42.4154 16.5369 39.2354 19.7069 36.1154C20.2269 35.5954 20.4669 35.0954 20.4569 34.3454C20.4169 29.9254 20.4569 25.5054 20.4169 21.0854C20.4069 20.2654 20.6469 20.0654 21.4369 20.0754C25.8569 20.1154 30.2769 20.0754 34.6969 20.1054C35.3969 20.1054 35.8969 19.9253 36.3969 19.4153C39.4969 16.2653 42.6669 13.1854 45.7369 10.0054C46.4969 9.22538 46.8569 9.34535 47.5369 10.0454C50.6269 13.2054 53.7769 16.3053 56.8869 19.4453C57.3569 19.9253 57.8369 20.0954 58.4969 20.0954C62.9469 20.0754 67.4069 20.1054 71.8569 20.0654C72.6069 20.0554 72.8369 20.2354 72.8369 21.0254C72.7969 25.4754 72.8369 29.9353 72.8069 34.3853C72.7969 35.0953 73.0269 35.5754 73.5169 36.0654C76.7069 39.2154 79.8669 42.4154 83.0569 45.5654C83.5569 46.0654 83.5769 46.3354 83.0669 46.8354C79.9169 49.9354 76.8169 53.0854 73.6669 56.1854C73.0669 56.7754 72.7869 57.3554 72.7969 58.2154C72.8469 62.5954 72.7969 66.9854 72.8369 71.3754C72.8469 72.1654 72.6469 72.4154 71.8269 72.3954C69.5369 72.3454 67.2569 72.3754 64.9769 72.3754ZM61.8869 68.0254C63.5869 68.0254 65.2869 68.0354 66.9869 68.0254C68.5769 68.0154 68.4169 68.2353 68.4269 66.6353C68.4369 63.1353 68.4469 59.6353 68.4169 56.1353C68.4069 55.5053 68.5969 55.0554 69.0369 54.6154C71.6569 52.0354 74.2269 49.4154 76.8469 46.8454C77.3569 46.3454 77.3669 46.0754 76.8469 45.5654C74.2269 42.9954 71.6469 40.3754 69.0369 37.7954C68.5869 37.3554 68.4069 36.9054 68.4069 36.2754C68.4369 32.7054 68.3769 29.1354 68.4469 25.5654C68.4669 24.5354 68.1469 24.3554 67.1969 24.3654C63.6669 24.4254 60.1269 24.3754 56.5869 24.4054C55.9269 24.4154 55.4569 24.2254 54.9869 23.7454C52.4369 21.1554 49.8269 18.6154 47.2969 16.0054C46.7169 15.4054 46.4269 15.4954 45.8969 16.0354C43.3469 18.6354 40.7569 21.1854 38.1969 23.7754C37.7569 24.2254 37.3169 24.4154 36.6869 24.4054C33.0469 24.3754 29.4069 24.4154 25.7769 24.3654C24.9469 24.3554 24.7769 24.6254 24.7769 25.3954C24.8169 28.9954 24.7769 32.6054 24.8069 36.2054C24.8069 36.8654 24.6369 37.3454 24.1569 37.8154C21.5569 40.3654 19.0169 42.9654 16.4169 45.5054C15.8769 46.0254 15.8369 46.3054 16.3969 46.8554C18.9969 49.3954 21.5469 51.9954 24.1369 54.5454C24.6069 55.0154 24.8169 55.4754 24.8069 56.1454C24.7769 59.7454 24.8169 63.3554 24.7769 66.9554C24.7669 67.8254 25.0269 68.0254 25.8669 68.0154C29.4069 67.9654 32.9369 68.0154 36.4769 67.9854C37.2469 67.9754 37.7969 68.1754 38.3469 68.7354C40.8369 71.2854 43.4069 73.7754 45.8869 76.3354C46.4969 76.9654 46.7869 76.8854 47.3569 76.3054C49.8669 73.7254 52.4469 71.2053 54.9769 68.6353C55.4469 68.1553 55.9169 67.9653 56.5769 67.9753C58.3469 68.0553 60.1169 68.0254 61.8869 68.0254Z" fill="#02645E"/>
</svg>
