<svg width="17" height="15" viewBox="0 0 17 15" fill="none" xmlns="http://www.w3.org/2000/svg">
<g clip-path="url(#clip0_5156_6638)">
<path d="M14.9769 4.57367C14.986 4.6998 14.986 4.82652 14.986 4.95385C14.986 8.84355 11.7441 13.3286 5.81774 13.3286V13.3262C4.06719 13.3286 2.35264 12.8707 0.878906 12.007C1.13347 12.0351 1.38935 12.0488 1.64587 12.0494C3.09736 12.0506 4.50695 11.6059 5.64759 10.7869C4.26875 10.763 3.0594 9.94166 2.63731 8.74253C3.12026 8.82741 3.61761 8.81008 4.09206 8.69232C2.58822 8.41495 1.50714 7.20805 1.50714 5.80687C1.50714 5.79432 1.50714 5.78176 1.50714 5.76981C1.95541 5.99816 2.45669 6.12429 2.96975 6.13804C1.5536 5.27425 1.11646 3.55387 1.97177 2.20888C3.60779 4.04763 6.02191 5.16546 8.61272 5.28442C8.35292 4.26223 8.70826 3.19102 9.5446 2.4719C10.8423 1.35705 12.8834 1.41444 14.1039 2.59982C14.8257 2.4701 15.5174 2.22801 16.1502 1.88548C15.9094 2.56694 15.4061 3.14559 14.7334 3.51382C15.3728 3.44388 15.9964 3.28786 16.5847 3.04994C16.1522 3.64114 15.6077 4.15702 14.9769 4.57367Z" fill="white"/>
</g>
<defs>
<clipPath id="clip0_5156_6638">
<rect width="15.7064" height="14.3465" fill="white" transform="translate(0.878906 0.328125)"/>
</clipPath>
</defs>
</svg>
