<svg width="1340" height="1841" viewBox="0 0 1340 1841" fill="none" xmlns="http://www.w3.org/2000/svg">
<path d="M-392.913 0.976562C-360.431 11.8047 -360.431 11.8047 -350.153 30.6693C-347.515 38.2905 -344.877 45.9116 -342.159 53.7637C-338.076 65.1116 -338.076 65.1116 -333.911 76.6888C-327.948 98.4297 -327.948 98.4297 -327.948 130.914C-320.802 130.914 -313.655 130.914 -306.293 130.914C-302.273 121.199 -302.273 121.199 -298.172 111.288C-276.238 72.9015 -250.206 58.0771 -208.844 44.2891C-142.757 37.6287 -95.6345 46.7562 -35.603 76.7734C23.7419 105.908 61.9019 114.493 126.811 109.258C156.454 99.2152 156.454 99.2152 180.949 87.6016C191.668 87.6016 202.387 87.6016 213.432 87.6016C242.46 125.564 251.276 159.7 256.742 206.711C278.18 195.991 299.619 185.271 321.708 174.227C316.508 202.303 310.57 217.956 293.285 241.226C275 278.629 273.489 302.186 279.285 343.035C296.041 387.03 328.876 413.844 363.622 444.464C392.206 471.896 406.42 492.761 410.823 532.316C409.531 594.117 409.531 594.117 397.5 618.18C459.558 619.857 515.451 614.416 576.156 601.938C584.028 600.388 591.9 598.839 600.01 597.242C619.142 593.466 638.255 589.591 657.363 585.695C654.308 568.081 651.126 550.49 647.888 532.908C646.13 523.11 644.371 513.311 642.559 503.215C637.543 475.627 637.543 475.627 614.052 455.758C576.156 452.148 576.156 452.148 538.259 455.758C527.54 466.478 527.54 466.478 516.604 477.414C516.604 491.707 516.604 506 516.604 520.727C548.762 531.446 548.762 531.446 581.57 542.383C577.996 553.103 574.423 563.823 570.742 574.867C527.826 578.233 501.561 578.384 463.143 557.948C440.811 531.555 440.811 531.555 437.427 490.949C438.544 479.336 439.66 467.723 440.811 455.758C408.653 450.398 408.653 450.398 375.845 444.93C368.401 420.566 368.401 420.566 365.018 390.789C380.583 365.749 380.583 365.749 397.5 347.477C388.791 339.883 380.082 332.29 371.108 324.467C340.012 289.577 333.477 274.501 332.535 228.367C342.686 191.822 342.686 191.822 354.19 163.398C364.909 163.398 375.629 163.398 386.673 163.398C390.693 174.788 394.712 186.178 398.854 197.913C424.569 256.008 459.782 283.6 517.746 306.786C530.098 311.281 542.451 315.776 555.177 320.406C610.325 340.484 643.836 354.706 679.018 401.617C685.494 409.88 691.97 418.144 698.643 426.657C716.745 467.628 714.429 497.718 711.5 542.383C707.927 549.529 704.354 556.676 700.673 564.039C711.832 558.177 711.832 558.177 723.216 552.196C737.851 544.658 737.851 544.658 752.781 536.969C762.453 531.944 772.126 526.919 782.091 521.742C808.949 509.898 808.949 509.898 841.432 509.898C835.032 562.378 819.999 603.101 798.121 650.664C811.074 648.207 824.026 645.751 837.371 643.22C884.546 637.655 909.857 644.597 949.708 672.32C998.695 714.168 1019.99 758.771 1041.07 819.177C1070.49 901.752 1110.46 938.387 1187.91 975.508C1187.91 986.228 1187.91 996.948 1187.91 1007.99C1101.33 1023.65 1101.33 1023.65 1060.01 1005.29C1052.2 999.032 1044.38 992.779 1036.33 986.336C1028.07 980.306 1019.8 974.276 1011.29 968.063C1005.26 963.374 999.23 958.684 993.018 953.852C989.445 964.571 985.872 975.291 982.19 986.336C951.061 988.366 951.061 988.366 917.225 986.336C895.57 953.852 895.57 953.852 895.57 910.539C883.957 911.656 872.344 912.772 860.38 913.923C819.776 910.539 819.776 910.539 793.384 887.529C774.001 851.862 772.022 831.43 776.466 791.43C780.039 784.283 783.612 777.137 787.294 769.773C798.013 773.347 808.732 776.92 819.776 780.602C823.35 798.468 826.923 816.334 830.604 834.742C856.766 837.453 856.766 837.453 884.742 834.742C909.536 804.258 909.536 804.258 905.72 769.773C898.35 735.875 898.35 735.875 871.208 716.986C840.457 704.406 820.127 701.99 787.294 704.805C746.754 785.888 731 874.142 733.156 964.68C738.515 960.883 743.875 957.086 749.397 953.175C790.355 937.815 822.888 938.363 863.087 953.852C892.296 976.616 918.286 1000.93 944.378 1027.2C973.691 1053.39 999.86 1069.23 1036.33 1083.79C1079.94 1075.66 1107.7 1065.08 1144.6 1040.48C1155.32 1040.48 1166.04 1040.48 1177.09 1040.48C1169.94 1061.92 1162.79 1083.36 1155.43 1105.45C1169.72 1109.02 1184.02 1112.59 1198.74 1116.27C1198.74 1126.99 1198.74 1137.71 1198.74 1148.76C1192.08 1150.6 1185.43 1152.44 1178.57 1154.34C1165.44 1158.28 1165.44 1158.28 1152.05 1162.29C1143.38 1164.81 1134.71 1167.32 1125.78 1169.91C1095.23 1184.05 1084.71 1194.85 1068.81 1224.55C1063.34 1260.26 1063.34 1260.26 1062.72 1299C1060.64 1357.45 1057.43 1411.97 1022.12 1460.74C998.71 1477.22 977.807 1480.63 949.708 1484.43C983.463 1531.74 1019.98 1560.51 1068.13 1591.36C1074.72 1595.85 1081.3 1600.35 1088.08 1604.98C1118.78 1624.85 1138.51 1636.31 1175.56 1634.54C1199.76 1627.04 1199.76 1627.04 1212.95 1606.92C1224.44 1568.27 1227.88 1531.89 1209.57 1495.26C1165.24 1483.48 1165.24 1483.48 1122.95 1495.26C1128.21 1529.07 1133.76 1560.18 1144.6 1592.71C1077.29 1569.06 1077.29 1569.06 1057.98 1538.57C1054.35 1505.91 1051.98 1483.37 1057.98 1451.95C1079.64 1424.88 1079.64 1424.88 1101.29 1408.63C1085.21 1381.83 1085.21 1381.83 1068.81 1354.49C1081.67 1332.84 1081.67 1332.84 1101.29 1311.18C1130.39 1308.47 1130.39 1308.47 1155.43 1311.18C1154.31 1298.23 1153.2 1285.27 1152.05 1271.93C1152.05 1236.03 1156.97 1215.78 1179.12 1187.33C1209.56 1159.6 1223.34 1151.06 1263.71 1148.76C1262.14 1157.69 1260.58 1166.62 1258.97 1175.83C1256.96 1188.33 1254.95 1200.84 1252.88 1213.73C1249.98 1227.35 1247.07 1240.97 1244.08 1255.01C1237.26 1310.11 1260.93 1349.78 1285.36 1397.8C1315.78 1461.32 1326.08 1512.67 1307.02 1581.88C1284.82 1622.59 1269.78 1642.8 1231.22 1668.51C1266.96 1686.37 1302.69 1704.24 1339.5 1722.65C1339.5 1733.37 1339.5 1744.09 1339.5 1755.13C1285.9 1776.57 1285.9 1776.57 1231.22 1798.45C1243.51 1810.51 1255.79 1822.56 1268.44 1834.99C1305.83 1877.92 1318.22 1910.14 1320.13 1966.75C1315.55 2020.09 1296.7 2062.54 1267.77 2107.05C1241.46 2154.89 1236.97 2198.03 1248.69 2250.39C1256.61 2276.91 1265.1 2303.01 1274.53 2329.02C1222.04 2321.27 1201.84 2303.59 1166.26 2264.05C1162.69 2260.48 1159.11 2256.91 1155.43 2253.23C1154.65 2236.78 1154.52 2220.29 1154.75 2203.82C1154.85 2194.88 1154.95 2185.93 1155.05 2176.71C1155.24 2166.35 1155.24 2166.35 1155.43 2155.77C1148.79 2157.99 1142.14 2160.21 1135.3 2162.5C1127.65 2163.85 1120 2165.21 1112.12 2166.6C1087.76 2145.62 1087.76 2145.62 1068.81 2123.29C1089.11 2071.86 1089.11 2071.86 1101.29 2047.49C1087 2040.35 1072.71 2033.2 1057.98 2025.84C1051.37 1947.79 1051.37 1947.79 1083.02 1906.73C1112.12 1885.07 1112.12 1885.07 1144.6 1885.07C1140.81 1893.11 1137.01 1901.15 1133.1 1909.43C1122.46 1940.64 1122.59 1952.33 1133.78 1982.52C1165.35 1985.23 1165.35 1985.23 1198.74 1982.52C1223.92 1944.75 1224.02 1929.45 1220.4 1885.07C1212.91 1860.13 1212.91 1860.13 1198.74 1841.76C1165.22 1826.7 1165.22 1826.7 1129.04 1845.82C1064.26 1879.96 1007.26 1926.8 949.708 1971.7C960.022 1976.61 970.336 1981.52 980.964 1986.58C1026.56 2010.38 1041.93 2031.82 1057.98 2079.98C1059.39 2116.15 1060.67 2152.26 1060.73 2188.47C1062.23 2230.69 1067.28 2251.26 1093.47 2284.91C1133.12 2315.11 1161.15 2320 1209.57 2329.02C1187.91 2361.51 1187.91 2361.51 1164.91 2368.95C1158.21 2370.07 1151.51 2371.19 1144.6 2372.34C1155.32 2386.63 1166.04 2400.92 1177.09 2415.65C1173.51 2422.79 1169.94 2429.94 1166.26 2437.3C1160.76 2434.18 1155.26 2431.05 1149.59 2427.83C1085.72 2392.99 1085.72 2392.99 1014.67 2393.99C975.531 2417.46 941.545 2446.6 907.962 2477.36C869.097 2512.8 842.688 2535.94 787.294 2534.76C765.402 2524.42 743.71 2513.63 722.328 2502.27C727.251 2531.16 732.22 2560.03 737.216 2588.9C738.584 2596.95 739.952 2605.01 741.361 2613.3C750.746 2667.27 762.614 2719.97 776.466 2772.98C844.026 2764.5 844.026 2764.5 897.6 2726.28C908.878 2697.29 908.878 2697.29 900.307 2667.4C887.032 2641.3 887.032 2641.3 861.733 2634.24C855.034 2633.57 848.334 2632.9 841.432 2632.21C834.285 2653.65 827.139 2675.09 819.776 2697.18C805.484 2693.61 791.192 2690.03 776.466 2686.35C771.246 2618.49 771.246 2618.49 793.384 2584.84C827.123 2562.34 855.558 2559.49 895.57 2556.41C896.24 2547.93 896.909 2539.44 897.6 2530.7C906.397 2502.27 906.397 2502.27 930.759 2486.03C960.535 2480.62 960.535 2480.62 990.988 2495.51C998.804 2501.31 1006.62 2507.12 1014.67 2513.1C1021.37 2504.17 1028.07 2495.24 1034.97 2486.03C1055.59 2464.99 1066.2 2459.35 1095.75 2454.98C1168.71 2454.77 1168.71 2454.77 1198.74 2469.79C1187.91 2502.27 1187.91 2502.27 1169.43 2512.64C1161.91 2515.69 1154.39 2518.75 1146.63 2521.9C1075.45 2556.1 1058.22 2609.28 1032.94 2680.94C1006.71 2752.32 974.268 2793.18 906.397 2827.12C889.72 2827.87 873.012 2828.03 856.32 2827.79C847.47 2827.7 838.622 2827.6 829.504 2827.5C819.329 2827.31 819.329 2827.31 808.949 2827.12C813.973 2841.19 813.973 2841.19 819.1 2855.54C829.791 2889.5 836.406 2921.87 841.432 2957.05C796.013 2950.57 754.703 2940 711.5 2924.57C712.003 2930.85 712.505 2937.13 713.023 2943.6C715.86 3005 709.771 3038.67 668.19 3086.99C628.938 3122.34 593.541 3139.86 543.673 3156.7C472.845 3182.92 436.232 3207.38 399.531 3274.45C395.288 3284.06 391.045 3293.66 386.673 3303.55C372.381 3299.98 358.088 3296.41 343.363 3292.73C335.06 3199.36 335.06 3199.36 355.417 3162.79C370.432 3145.19 370.432 3145.19 397.5 3119.48C391.917 3115.23 386.334 3110.99 380.583 3106.62C365.018 3086.99 365.018 3086.99 367.048 3059.25C375.845 3032.85 375.845 3032.85 397.5 3011.2C411.793 3011.2 426.085 3011.2 440.811 3011.2C439.471 2999.58 438.131 2987.97 436.75 2976C440.811 2935.4 440.811 2935.4 469.233 2909C507.559 2891.26 529.184 2885.47 570.742 2892.09C581.461 2908.17 581.461 2908.17 592.397 2924.57C567.385 2935.29 542.374 2946.01 516.604 2957.05C519.594 2978.07 519.594 2978.07 527.432 3000.37C558.015 3025.36 558.015 3025.36 593.074 3020.67C624.989 3014.32 624.989 3014.32 639.768 2993.6C648.8 2959.28 647.893 2927.4 646.535 2892.09C559.943 2864.49 477.354 2852.95 386.673 2848.77C397.392 2864.85 397.392 2864.85 408.328 2881.26C415.279 2917.28 418.033 2933.57 408.328 2967.88C386.042 2997.93 361.853 3023.84 335.369 3050.24C299.755 3087.94 280.134 3116.41 273.66 3168.2C279.166 3212.25 291.717 3228.43 321.708 3260.24C325.281 3267.39 328.854 3274.54 332.535 3281.9C325.389 3289.04 318.243 3296.19 310.88 3303.55C293.014 3289.26 275.149 3274.97 256.742 3260.24C253.169 3278.11 249.596 3295.98 245.914 3314.38C226.289 3308.97 226.289 3308.97 202.604 3292.73C193.227 3270.92 186.319 3249.26 179.934 3226.4C166.888 3199.41 154.177 3195.79 126.811 3184.45C104.776 3180.29 104.776 3180.29 81.8511 3179.12C73.4417 3178.4 65.0322 3177.69 56.3682 3176.96C38.8638 3175.64 21.3533 3174.4 3.8374 3173.24C-50.4307 3168.47 -83.7257 3161.41 -122.224 3119.48C-136.435 3089.7 -136.435 3089.7 -143.879 3065.34C-234.046 3164.56 -234.046 3164.56 -276.517 3286.64C-275.623 3295.79 -274.73 3304.95 -273.81 3314.38C-234.477 3339.56 -200.615 3340.29 -154.706 3336.04C-131.406 3301.09 -130.876 3289.65 -133.051 3249.41C-174.357 3233.53 -201.158 3244.72 -241.327 3260.24C-227.721 3218.29 -216.295 3194.12 -176.362 3173.62C-109.64 3166.59 -109.64 3166.59 -79.59 3189.86C-75.7936 3195.22 -71.9972 3200.58 -68.0857 3206.1C-58.2596 3202.08 -48.4336 3198.06 -38.3098 3193.92C-3.12012 3184.45 -3.12012 3184.45 21.9187 3191.21C40.1902 3206.1 40.1902 3206.1 48.9875 3227.76C51.0178 3249.41 51.0178 3249.41 40.1902 3271.07C52.9194 3269.73 65.6484 3268.39 78.7634 3267.01C128.305 3266.83 152.151 3285.25 188.012 3317.6C204.249 3338.12 209.041 3353.78 213.432 3379.35C203.382 3377.56 193.333 3375.78 182.979 3373.94C87.6343 3361.25 21.5198 3362.44 -63.687 3409.76C-120.083 3437.69 -174.255 3440.49 -233.883 3421.31C-272.648 3404.67 -293.992 3382.53 -317.12 3346.87C-331.413 3386.17 -345.705 3425.48 -360.431 3465.98C-374.723 3462.4 -389.015 3458.83 -403.741 3455.15C-415.076 3430.4 -415.076 3430.4 -422.689 3400.33C-425.313 3390.38 -427.937 3380.43 -430.641 3370.17C-432.483 3362.48 -434.325 3354.79 -436.224 3346.87C-443.37 3346.87 -450.516 3346.87 -457.879 3346.87C-460.335 3353.34 -462.792 3359.82 -465.323 3366.49C-487.465 3403.4 -513.566 3416.52 -554.312 3428.97C-639.506 3445.48 -708.095 3405.83 -782.706 3368.52C-803.663 3367.47 -824.658 3367.12 -845.642 3367.17C-862.495 3367.13 -862.495 3367.13 -879.689 3367.09C-909.968 3368.41 -937.318 3372.49 -966.775 3379.35C-966.775 3386.5 -966.775 3393.64 -966.775 3401.01C-973.922 3397.43 -981.068 3393.86 -988.431 3390.18C-929.645 3288.75 -929.645 3288.75 -890.982 3271.07C-861.539 3268.63 -834.017 3269.59 -804.362 3271.07C-804.362 3249.63 -804.362 3228.19 -804.362 3206.1C-767.818 3199.33 -767.818 3199.33 -728.568 3195.27C-721.422 3202.42 -714.276 3209.57 -706.913 3216.93C-701.33 3209.78 -695.747 3202.64 -689.995 3195.27C-663.603 3173.62 -663.603 3173.62 -626.383 3168.2C-572.357 3175.79 -549.343 3201.26 -512.017 3238.59C-508.444 3249.31 -504.87 3260.03 -501.189 3271.07C-510.792 3267.72 -520.395 3264.37 -530.288 3260.92C-560.385 3251.26 -589.232 3244.07 -620.293 3238.59C-629.059 3270.15 -633.486 3286.89 -620.969 3317.77C-617.173 3323.8 -613.376 3329.83 -609.465 3336.04C-555.083 3339.24 -523.977 3335.88 -479.534 3303.55C-485.718 3258.04 -501.146 3228.1 -526.228 3189.86C-532.662 3179.92 -539.097 3169.98 -545.726 3159.74C-581.084 3104.66 -581.084 3104.66 -631.12 3065.34C-631.79 3073.38 -632.46 3081.42 -633.15 3089.7C-645.255 3130.67 -659.792 3140.27 -696.086 3162.79C-739.409 3171.8 -783.425 3172.78 -827.518 3175.06C-881.758 3178.6 -881.758 3178.6 -928.794 3203.94C-944.703 3227.15 -954.03 3246.25 -962.038 3273.1C-968.848 3295.9 -968.848 3295.9 -977.603 3314.38C-988.322 3317.96 -999.042 3321.53 -1010.09 3325.21C-1010.09 3303.77 -1010.09 3282.33 -1010.09 3260.24C-1047.6 3281.68 -1047.6 3281.68 -1085.88 3303.55C-1085.88 3271.07 -1085.88 3271.07 -1064.22 3247.38C-1041.05 3214.8 -1034.91 3193.22 -1036.94 3153.19C-1047.88 3108.68 -1077.84 3077.42 -1107.53 3043.68C-1117.71 3031.52 -1127.86 3019.34 -1137.99 3007.13C-1145.8 2997.75 -1153.62 2988.38 -1161.67 2978.71C-1178.01 2946.02 -1174.4 2917.28 -1172.5 2881.26C-1165.35 2870.54 -1158.21 2859.82 -1150.84 2848.77C-1243.32 2854.25 -1331.38 2871.16 -1421.53 2892.09C-1412.28 2956.89 -1412.28 2956.89 -1380.93 3012.55C-1347.97 3025.37 -1325.37 3019.64 -1291.6 3011.2C-1288.03 2993.33 -1284.46 2975.46 -1280.78 2957.05C-1302.21 2949.91 -1323.65 2942.76 -1345.74 2935.4C-1345.74 2924.68 -1345.74 2913.96 -1345.74 2902.91C-1299.94 2891.92 -1276.48 2889.24 -1232.73 2908.33C-1204.98 2935.4 -1204.98 2935.4 -1200.92 2976C-1202.93 2993.42 -1202.93 2993.42 -1204.98 3011.2C-1196.5 3012.54 -1188.01 3013.88 -1179.27 3015.26C-1150.84 3022.02 -1150.84 3022.02 -1129.19 3043.68C-1127.84 3072.1 -1127.84 3072.1 -1129.19 3097.82C-1136.34 3101.39 -1143.48 3104.97 -1150.84 3108.65C-1139.06 3133.12 -1126.97 3155.2 -1111.59 3177.68C-1093.71 3211.82 -1092.57 3233 -1096.71 3271.07C-1103.85 3281.79 -1111 3292.51 -1118.36 3303.55C-1129.08 3303.55 -1139.8 3303.55 -1150.84 3303.55C-1153.22 3297.8 -1155.59 3292.05 -1158.03 3286.13C-1199.72 3193.27 -1265.76 3169.03 -1357.63 3134.03C-1417.74 3106.19 -1452.44 3073.55 -1475.67 3011.2C-1480.13 2944.32 -1480.13 2944.32 -1464.84 2913.74C-1511.29 2931.61 -1557.74 2949.48 -1605.6 2967.88C-1600.22 2914.03 -1588.79 2874.35 -1562.29 2827.12C-1569.1 2827.87 -1575.92 2828.62 -1582.93 2829.4C-1648.59 2833.55 -1688.55 2825.87 -1739.04 2782.66C-1770.1 2747.55 -1784.18 2708.09 -1800.5 2664.7C-1829.88 2595.94 -1851.21 2547.3 -1919.6 2513.1C-1930.32 2509.53 -1941.04 2505.96 -1952.09 2502.27C-1952.09 2491.55 -1952.09 2480.83 -1952.09 2469.79C-1907.9 2447.7 -1880.43 2444.44 -1832.98 2458.96C-1809.18 2475.44 -1789.34 2493.3 -1768.02 2513.1C-1758.97 2504.39 -1758.97 2504.39 -1749.75 2495.51C-1724.71 2480.62 -1724.71 2480.62 -1695.61 2486.03C-1670.57 2502.27 -1670.57 2502.27 -1661.77 2530.7C-1661.1 2539.18 -1660.43 2547.67 -1659.74 2556.41C-1645.34 2554.74 -1645.34 2554.74 -1630.64 2553.03C-1594.78 2556.41 -1594.78 2556.41 -1563.65 2578.75C-1535.54 2617.6 -1536.04 2639.44 -1540.64 2686.35C-1551.36 2689.92 -1562.08 2693.5 -1573.12 2697.18C-1583.84 2675.74 -1594.56 2654.3 -1605.6 2632.21C-1626.91 2632.55 -1626.91 2632.55 -1648.91 2643.04C-1663.04 2675.48 -1663.04 2675.48 -1670.57 2708.01C-1648.26 2736.66 -1648.26 2736.66 -1616.43 2762.15C-1576.26 2766.68 -1576.26 2766.68 -1540.64 2762.15C-1514.83 2676.3 -1498.5 2591.07 -1486.5 2502.27C-1502.91 2510.98 -1502.91 2510.98 -1519.66 2519.87C-1554.18 2534.02 -1580.16 2539.03 -1616.77 2526.21C-1658.24 2500.7 -1690.14 2464.12 -1723.23 2428.8C-1752.15 2398.82 -1760.89 2394.69 -1802.53 2390.61C-1853.44 2394.78 -1876.48 2411.09 -1919.6 2437.3C-1926.75 2433.73 -1933.9 2430.16 -1941.26 2426.48C-1930.54 2408.61 -1919.82 2390.74 -1908.78 2372.34C-1926.64 2365.19 -1944.51 2358.04 -1962.91 2350.68C-1962.91 2343.53 -1962.91 2336.39 -1962.91 2329.02C-1956.26 2327.18 -1949.6 2325.34 -1942.74 2323.44C-1888.35 2307.93 -1888.35 2307.93 -1843.81 2274.88C-1817.53 2222.32 -1819.51 2169.66 -1819.41 2112.25C-1817.91 2069.98 -1813.07 2049.68 -1786.46 2016.28C-1762.47 1997.49 -1741.94 1983.13 -1713.88 1971.7C-1828.64 1868.62 -1828.64 1868.62 -1973.74 1841.76C-1976.16 1857.07 -1978.38 1872.42 -1980.51 1887.78C-1981.76 1896.32 -1983.02 1904.86 -1984.31 1913.66C-1984.6 1942.69 -1977.7 1957.91 -1962.91 1982.52C-1937.9 1982.52 -1912.89 1982.52 -1887.12 1982.52C-1885.31 1956.36 -1885.31 1956.36 -1887.12 1928.38C-1894.27 1921.24 -1901.41 1914.09 -1908.78 1906.73C-1905.2 1896.01 -1901.63 1885.29 -1897.95 1874.24C-1869.48 1890.72 -1845.5 1905.03 -1822.15 1928.38C-1820.04 1951.82 -1820.04 1951.82 -1820.8 1978.46C-1821 1987.31 -1821.19 1996.16 -1821.39 2005.28C-1821.64 2012.06 -1821.9 2018.85 -1822.15 2025.84C-1843.59 2036.56 -1843.59 2036.56 -1865.46 2047.49C-1859.88 2053.52 -1854.3 2059.55 -1848.55 2065.76C-1832.98 2090.8 -1832.98 2090.8 -1833.66 2119.23C-1843.81 2144.95 -1843.81 2144.95 -1864.11 2159.83C-1887.12 2166.6 -1887.12 2166.6 -1919.6 2155.77C-1918.47 2166.56 -1918.47 2166.56 -1917.32 2177.56C-1912.64 2253.9 -1912.64 2253.9 -1932.55 2282.92C-1961.22 2307.27 -1990.25 2324.68 -2027.88 2329.02C-2026.32 2320.09 -2024.75 2311.16 -2023.14 2301.95C-2021.13 2289.45 -2019.12 2276.94 -2017.05 2264.05C-2014.15 2250.65 -2011.24 2237.26 -2008.25 2223.45C-2001.12 2165.93 -2025.9 2120.35 -2049.53 2069.15C-2078.52 2005.59 -2087.91 1965.03 -2071.19 1895.9C-2049.13 1856.93 -2027.12 1830.17 -1995.4 1798.45C-2031.13 1784.15 -2066.86 1769.86 -2103.67 1755.13C-2103.67 1744.41 -2103.67 1733.69 -2103.67 1722.65C-2087.9 1715.38 -2072.11 1708.17 -2056.3 1700.99C-2047.51 1696.97 -2038.71 1692.95 -2029.66 1688.81C-2006.22 1679.34 -2006.22 1679.34 -1984.57 1679.34C-1984.57 1672.19 -1984.57 1665.04 -1984.57 1657.68C-1991.04 1654.78 -1997.52 1651.87 -2004.19 1648.88C-2042.07 1628.32 -2057.48 1612.2 -2071.19 1571.05C-2081.25 1497.98 -2071.4 1446.02 -2038.03 1380.21C-2006.62 1318.05 -1999.89 1280.49 -2017.05 1213.73C-2019.06 1201 -2021.07 1188.27 -2023.14 1175.15C-2024.7 1166.44 -2026.27 1157.73 -2027.88 1148.76C-1991.58 1151.87 -1973.31 1159.89 -1943.29 1181.24C-1911.28 1225.15 -1914.45 1258.62 -1919.6 1311.18C-1882.09 1316.54 -1882.09 1316.54 -1843.81 1322.01C-1835.04 1353.57 -1830.62 1370.31 -1843.13 1401.19C-1846.93 1407.22 -1850.73 1413.25 -1854.64 1419.46C-1847.27 1427.05 -1839.9 1434.65 -1832.31 1442.47C-1811.33 1473.6 -1811.33 1473.6 -1811.33 1506.76C-1823.55 1542.68 -1835.94 1558.44 -1865.46 1581.88C-1876.18 1585.46 -1886.9 1589.03 -1897.95 1592.71C-1897.95 1553.62 -1887.54 1521.7 -1876.29 1484.43C-1914.4 1480.97 -1934.98 1480.4 -1967.65 1501.35C-1988.22 1527.94 -1988.22 1527.94 -1983.21 1566.32C-1975.69 1604.52 -1975.69 1604.52 -1952.09 1636.02C-1857.06 1625.39 -1776.13 1566.1 -1713.88 1495.26C-1723.93 1490.79 -1733.98 1486.32 -1744.33 1481.72C-1779.61 1462.35 -1791.89 1453.72 -1811.33 1419.46C-1815.73 1382.37 -1815.73 1382.37 -1816.74 1340.28C-1819.03 1255.53 -1819.03 1255.53 -1854.64 1181.24C-1889.58 1162.53 -1925.02 1149.38 -1962.91 1137.93C-1962.91 1130.78 -1962.91 1123.64 -1962.91 1116.27C-1936.11 1105.55 -1936.11 1105.55 -1908.78 1094.62C-1923.07 1080.32 -1937.36 1066.03 -1952.09 1051.3C-1933.14 1043.86 -1933.14 1043.86 -1908.78 1040.48C-1902.75 1045.61 -1896.72 1050.75 -1890.5 1056.04C-1857.41 1078.41 -1833.2 1080.14 -1793.73 1078.97C-1745.3 1067.66 -1715.06 1031.95 -1681.4 997.164C-1639.58 956.421 -1608.86 947.728 -1552.4 941.755C-1529.81 943.023 -1529.81 943.023 -1497.33 964.68C-1495.73 910.643 -1500.98 863.063 -1512.89 810.379C-1515.78 797.37 -1518.67 784.361 -1521.65 770.958C-1529.33 737.221 -1529.33 737.221 -1540.64 704.805C-1585.35 702.725 -1621.14 702.196 -1659.74 726.461C-1671.69 765.709 -1673.18 795.921 -1659.74 834.742C-1638.3 834.742 -1616.86 834.742 -1594.78 834.742C-1591.2 813.302 -1587.63 791.863 -1583.95 769.773C-1569.66 773.347 -1555.36 776.92 -1540.64 780.602C-1535.37 859.618 -1535.37 859.618 -1558.91 893.62C-1586.35 912.165 -1605.18 918.769 -1638.09 921.367C-1648.8 916.007 -1648.8 916.007 -1659.74 910.539C-1659.29 919.026 -1658.85 927.512 -1658.39 936.256C-1659.74 964.68 -1659.74 964.68 -1681.4 986.336C-1720.57 990.459 -1745.11 984.674 -1778.84 964.68C-1787.33 971.603 -1795.82 978.526 -1804.56 985.659C-1849 1020.58 -1874.02 1020.84 -1930.43 1018.82C-1937.58 1015.25 -1944.72 1011.67 -1952.09 1007.99C-1952.09 997.272 -1952.09 986.552 -1952.09 975.508C-1942.29 971.153 -1942.29 971.153 -1932.29 966.71C-1864.92 933.672 -1836.6 904.824 -1811.33 834.742C-1808.33 825.837 -1805.33 816.932 -1802.23 807.756C-1777.19 737.043 -1746.45 690.43 -1681.4 650.664C-1633.51 637.895 -1610.5 638.611 -1562.29 650.664C-1580.16 604.211 -1598.02 557.759 -1616.43 509.898C-1559.45 519.396 -1526.22 529.956 -1475.67 553.211C-1476.17 547.055 -1476.68 540.9 -1477.19 534.558C-1479.54 484.453 -1478.63 441.188 -1450.25 397.557C-1403.53 351.605 -1335.52 326.694 -1274.56 305.137C-1200.51 278.108 -1173.92 233.073 -1140.02 163.398C-1129.3 166.972 -1118.58 170.545 -1107.53 174.227C-1092.93 252.548 -1092.93 252.548 -1110.24 290.629C-1119.62 302.689 -1119.62 302.689 -1129.19 314.992C-1135.22 323.255 -1141.25 331.519 -1147.46 340.032C-1152.15 346.062 -1156.84 352.092 -1161.67 358.305C-1145.59 369.025 -1145.59 369.025 -1129.19 379.961C-1125.81 407.031 -1125.81 407.031 -1129.19 434.102C-1150.84 455.758 -1150.84 455.758 -1179.27 457.111C-1187.75 456.665 -1196.24 456.218 -1204.98 455.758C-1203.87 467.371 -1202.75 478.984 -1201.6 490.949C-1204.98 531.555 -1204.98 531.555 -1226.64 557.948C-1269.86 580.464 -1297.46 578.141 -1345.74 574.867C-1349.31 564.147 -1352.89 553.427 -1356.57 542.383C-1331.56 535.236 -1306.54 528.09 -1280.78 520.727C-1280.78 499.287 -1280.78 477.847 -1280.78 455.758C-1338.04 450.133 -1338.04 450.133 -1388.37 470.646C-1412 506.777 -1411.64 531.954 -1410.71 574.867C-1324.22 601.661 -1241.6 624.826 -1150.84 629.008C-1154.29 622.587 -1157.74 616.166 -1161.29 609.551C-1178.56 572.792 -1178.55 550.217 -1172.5 509.898C-1145.97 471.372 -1112.81 439.176 -1079.62 406.397C-1050.63 375.654 -1042.53 358.033 -1036.48 315.669C-1039.25 267.527 -1060.87 236.225 -1085.88 195.883C-1082.31 188.736 -1078.73 181.59 -1075.05 174.227C-1057.19 184.946 -1039.32 195.666 -1020.91 206.711C-1013.77 192.418 -1006.62 178.125 -999.258 163.398C-988.539 166.972 -977.819 170.545 -966.775 174.227C-957.767 195.486 -952.409 216.782 -946.6 239.111C-927.595 272.683 -904.913 279.903 -869.327 293.336C-828.212 297.509 -787.808 298.078 -746.502 298.708C-700.66 305.026 -677.207 317.915 -641.948 347.477C-632.474 382.668 -632.474 382.668 -631.12 412.445C-569.016 355.984 -512.738 284.246 -479.534 206.711C-480.358 183.56 -480.358 183.56 -490.362 163.398C-534.585 133.915 -556.907 137.571 -609.465 141.742C-634.262 178.939 -633.052 195.724 -631.12 239.195C-598.962 232.049 -566.804 224.902 -533.672 217.539C-530.099 224.686 -526.526 231.832 -522.844 239.195C-568.613 290.197 -568.613 290.197 -604.051 303.487C-636.602 304.301 -656.417 297.319 -685.258 282.508C-695.977 271.788 -695.977 271.788 -706.913 260.852C-714.059 267.998 -721.206 275.145 -728.568 282.508C-755.637 285.215 -755.637 285.215 -782.706 282.508C-804.362 260.852 -804.362 260.852 -805.715 227.014C-805.268 216.74 -804.822 206.467 -804.362 195.883C-813.741 198.339 -823.12 200.796 -832.784 203.327C-877.733 207.489 -896.693 198.459 -934.293 174.227C-965.486 141.992 -966.775 134.507 -966.775 87.6016C-956.056 91.1748 -945.337 94.7481 -934.293 98.4297C-843.839 122.888 -793.395 106.249 -709.321 67.6187C-640.424 36.9416 -590.66 31.3783 -520.137 57.1475C-487.693 78.5326 -462.471 102.35 -436.224 130.914C-434.549 119.859 -434.549 119.859 -432.84 108.581C-423.802 69.9608 -409.212 37.1184 -392.913 0.976562ZM202.604 120.086C197.691 128.572 192.778 137.059 187.716 145.803C147.431 186.09 106.093 188.84 51.0178 195.883C49.678 202.359 48.3379 208.836 46.9575 215.509C40.1902 239.195 40.1902 239.195 18.5349 271.68C-21.7764 276.848 -33.3499 273.182 -68.0857 250.023C-73.6687 257.393 -79.2516 264.763 -85.0038 272.356C-111.396 293.336 -111.396 293.336 -149.969 292.659C-185.366 283.005 -198.797 279.018 -219.672 250.023C-223.245 242.877 -226.818 235.73 -230.5 228.367C-223.591 229.274 -216.682 230.182 -209.563 231.117C-200.617 232.219 -191.67 233.322 -182.452 234.458C-173.533 235.589 -164.615 236.719 -155.425 237.884C-148.042 238.317 -140.658 238.749 -133.051 239.195C-118.762 227.227 -118.762 227.227 -119.517 197.236C-119.867 164.568 -119.867 164.568 -133.051 143.096C-167.891 123.498 -202.983 123.827 -241.327 130.914C-273.456 150.801 -273.456 150.801 -295.465 174.227C-281.038 223.8 -261.198 262.65 -232.53 305.518C-225.314 316.489 -218.098 327.46 -210.663 338.763C-187.331 368.949 -163.762 390.041 -133.051 412.445C-126.687 397.371 -126.687 397.371 -120.193 381.991C-98.0787 343.098 -86.3857 333.657 -46.4304 314.992C-7.89941 310.593 -7.89941 310.593 34.0996 309.578C91.6848 308.183 132.067 303.523 180.949 271.68C195.279 251.011 195.279 251.011 201.25 227.69C203.679 220.195 206.108 212.699 208.61 204.977C214.281 184.963 214.281 184.963 213.432 163.398C220.578 159.825 227.724 156.252 235.087 152.57C227.94 152.57 220.794 152.57 213.432 152.57C208.072 136.491 208.072 136.491 202.604 120.086ZM-382.086 206.711C-387.613 218.366 -393.14 230.021 -398.835 242.029C-443.911 333.726 -490.84 409.376 -562.628 482.265C-636.767 557.926 -709.368 651.817 -710.974 761.652C-709.402 844.929 -678.508 915.626 -620.293 975.508C-595.635 994.734 -570.474 1012.16 -544.5 1029.65C-530.499 1005.29 -516.516 980.929 -502.543 956.559C-496.618 946.258 -496.618 946.258 -490.573 935.748C-479.585 916.568 -468.728 897.314 -457.879 878.055C-453.357 870.071 -448.834 862.087 -444.175 853.861C-430.211 820.285 -438.469 793.276 -447.051 758.945C-462.859 730.498 -462.859 730.498 -490.362 715.633C-530.362 717.215 -530.362 717.215 -566.155 726.461C-566.155 747.901 -566.155 769.34 -566.155 791.43C-548.289 798.576 -530.424 805.723 -512.017 813.086C-512.017 823.806 -512.017 834.526 -512.017 845.57C-525.816 840.948 -539.567 836.183 -553.297 831.358C-560.959 828.72 -568.622 826.082 -576.517 823.364C-608.67 808.424 -626.174 790.495 -641.948 758.945C-648.229 691.105 -648.229 691.105 -621.646 657.432C-576.753 623.1 -545.664 628.116 -490.362 629.008C-489.552 621.01 -488.742 613.012 -487.908 604.771C-477.007 520.652 -455.178 448.63 -403.741 379.961C-379.971 365.834 -379.971 365.834 -360.431 358.305C-353.212 372.742 -345.994 387.18 -338.775 401.617C-335.202 408.54 -331.629 415.464 -327.948 422.597C-295.463 489.599 -283.267 555.463 -273.81 629.008C-267.403 628.38 -260.997 627.752 -254.396 627.104C-207.597 624.432 -183.406 624.407 -143.202 650.664C-119.956 686.659 -114.078 706.758 -117.021 748.836C-126.382 786.51 -145.305 802.107 -176.362 823.914C-217.642 832.712 -217.642 832.712 -252.155 834.742C-243.445 828.712 -234.736 822.682 -225.762 816.47C-196.377 793.926 -196.377 793.926 -187.866 763.006C-187.643 754.519 -187.419 746.033 -187.189 737.289C-207.538 712.403 -207.538 712.403 -240.65 712.249C-273.15 712.798 -273.15 712.798 -292.758 729.168C-322.188 770.148 -322.188 770.148 -326.129 819.727C-314.398 867.48 -292.573 904.986 -267.719 947.084C-263.12 955.054 -258.521 963.024 -253.783 971.236C-242.501 990.758 -231.099 1010.21 -219.672 1029.65C-144.22 979.367 -86.5615 922.657 -57.2581 834.742C-46.8176 728.394 -58.1534 650.789 -126.554 567.164C-150.44 539.128 -174.757 511.504 -199.291 484.034C-273.874 400.163 -329.753 311.122 -371.258 206.711C-374.831 206.711 -378.404 206.711 -382.086 206.711ZM-966.099 390.789C-985.323 426.978 -973.906 459.528 -966.775 499.07C-997.155 519.324 -1009.14 523.724 -1043.25 529.524C-1066 534.18 -1066 534.18 -1085.88 542.383C-1104.31 568.096 -1104.31 568.096 -1107.53 596.523C-1103.96 603.67 -1100.39 610.817 -1096.71 618.18C-1074.98 607.363 -1053.3 596.473 -1031.74 585.315C-1024.59 581.644 -1017.45 577.973 -1010.09 574.19C-999.366 568.642 -999.366 568.642 -988.431 562.982C-966.775 553.211 -966.775 553.211 -923.465 542.383C-923.465 510.223 -923.465 478.064 -923.465 444.93C-912.746 444.93 -902.026 444.93 -890.982 444.93C-880.155 466.586 -869.327 488.242 -858.5 509.898C-820.441 495.123 -820.441 495.123 -784.06 476.737C-751.94 462.566 -719.935 459.759 -685.258 455.758C-685.258 441.465 -685.258 427.172 -685.258 412.445C-690.618 407.085 -690.618 407.085 -696.086 401.617C-749.22 405.201 -749.22 405.201 -794.887 430.041C-815.189 444.93 -815.189 444.93 -844.965 441.546C-853.005 439.089 -861.044 436.633 -869.327 434.102C-872.9 416.235 -876.473 398.369 -880.155 379.961C-924.69 376.744 -924.69 376.744 -966.099 390.789ZM115.983 379.961C112.41 397.827 108.837 415.694 105.156 434.102C81.4705 442.223 81.4705 442.223 51.0178 444.93C32.9265 430.549 14.8828 416.108 -3.12012 401.617C-37.8745 397.988 -37.8745 397.988 -68.0857 401.617C-75.2319 415.91 -82.3781 430.203 -89.7408 444.93C-67.9735 466.698 -27.6721 465.092 1.82837 469.885C29.3625 477.414 29.3625 477.414 52.498 495.094C59.1558 499.98 65.8135 504.865 72.6729 509.898C112.672 496.565 130.612 475.163 159.294 444.93C159.294 477.089 159.294 509.249 159.294 542.383C167.515 545.133 175.736 547.882 184.206 550.715C194.967 554.442 205.728 558.169 216.815 562.009C232.831 567.473 232.831 567.473 249.171 573.048C277.368 585.25 290.397 596.183 310.88 618.18C318.026 618.18 325.172 618.18 332.535 618.18C340.867 592.784 340.867 592.784 343.363 564.039C320.018 532.706 297.708 525.777 260.125 518.696C251.374 516.979 242.623 515.263 233.606 513.494C223.62 511.714 223.62 511.714 213.432 509.898C206.664 478.768 206.664 478.768 202.604 444.93C209.75 437.783 216.896 430.637 224.259 423.273C213.241 400.115 213.241 400.115 191.776 379.961C152.52 376.346 152.52 376.346 115.983 379.961ZM-392.913 477.414C-424.416 546.672 -424.198 621.943 -405.094 695.33C-396.426 727.727 -396.426 727.727 -371.258 737.289C-352.414 688.381 -346.67 647.492 -346.896 595.17C-346.84 582.189 -346.784 569.208 -346.727 555.833C-349.411 523.069 -354.04 504.882 -371.258 477.414C-378.404 477.414 -385.551 477.414 -392.913 477.414ZM-778.688 569.792C-785.597 576.826 -792.506 583.861 -799.625 591.109C-834.005 622.475 -853.647 633.98 -900.456 632.392C-908.468 631.456 -916.479 630.521 -924.734 629.558C-931.461 629.376 -938.189 629.195 -945.12 629.008C-952.266 636.154 -959.413 643.301 -966.775 650.664C-941.988 663.35 -917.172 675.974 -892.336 688.562C-885.287 692.178 -878.239 695.793 -870.977 699.518C-834.111 719.622 -834.111 719.622 -793.534 726.461C-791.44 719.398 -789.347 712.335 -787.19 705.058C-772.026 654.16 -756.589 603.471 -739.396 553.211C-762.456 550.739 -762.456 550.739 -778.688 569.792ZM-24.7754 553.211C-6.14478 612.211 16.8789 669.198 40.1902 726.461C59.1431 717.899 78.0903 709.324 97.0349 700.744C107.587 695.97 118.139 691.197 129.01 686.278C153.805 674.85 178.281 663.057 202.604 650.664C175.685 623.744 167.151 626.98 130.195 626.301C75.4553 622.26 49.6323 605.728 11.7678 567.042C-2.37769 550.754 -2.37769 550.754 -24.7754 553.211ZM-1464.84 650.664C-1462.75 657.601 -1460.66 664.538 -1458.5 671.686C-1455.68 681.052 -1452.86 690.418 -1449.96 700.067C-1447.19 709.238 -1444.43 718.408 -1441.58 727.857C-1438.54 738.116 -1435.5 748.375 -1432.36 758.945C-1428.63 770.168 -1424.91 781.39 -1421.07 792.952C-1407.63 847.146 -1404.33 900.304 -1400.56 955.882C-1389.67 1145.09 -1389.67 1145.09 -1291.6 1300.35C-1204.04 1369.76 -1104.83 1360 -999.258 1354.49C-1005.81 1321.74 -1013 1289.47 -1020.91 1257.04C-1023.57 1245.86 -1026.22 1234.68 -1028.95 1223.16C-1049.47 1146.59 -1049.47 1146.59 -1106.18 1095.29C-1142.72 1081.4 -1149.72 1083.39 -1188.74 1097.32C-1197.67 1103.58 -1206.61 1109.83 -1215.81 1116.27C-1216.27 1137.92 -1216.25 1159.59 -1215.81 1181.24C-1203.78 1195.71 -1203.78 1195.71 -1173.18 1193.42C-1140.93 1194.38 -1140.93 1194.38 -1118.36 1181.24C-1129.19 1213.73 -1129.19 1213.73 -1151.52 1227.26C-1199.75 1239.58 -1246.61 1238.11 -1290.93 1212.37C-1309.17 1180.17 -1311.99 1153.04 -1313.26 1116.27C-1295.79 1075.82 -1274.08 1053.64 -1237.46 1029.65C-1247.29 1019.6 -1257.12 1009.55 -1267.24 999.194C-1325 931.874 -1348.82 846.102 -1356.57 758.945C-1248.11 772.529 -1168.68 805.933 -1085.88 878.055C-1078.06 867.558 -1070.25 857.062 -1062.19 846.247C-1043.32 823.94 -1033.13 813.708 -1006.03 801.581C-965.136 802.555 -937.464 815.232 -901.81 834.742C-875.25 868.233 -875.904 901.369 -880.155 943.023C-895.043 974.154 -895.043 974.154 -912.637 997.164C-919.784 997.164 -926.93 997.164 -934.293 997.164C-931.278 979.074 -931.278 979.074 -928.202 960.619C-920.035 923.255 -920.035 923.255 -934.293 899.711C-973.364 896.25 -973.364 896.25 -1007.38 913.246C-1023.51 935.836 -1030.15 947.592 -1031.74 975.508C-1012.61 1027.58 -993.559 1047.76 -945.12 1072.96C-921.674 1081.54 -897.962 1089.42 -874.064 1096.65C-861.991 1100.37 -849.918 1104.1 -837.479 1107.94C-803.053 1118.03 -803.053 1118.03 -761.051 1116.27C-756.564 988.622 -760.572 902.643 -843.315 800.735C-924.895 737.591 -1020.74 729.23 -1120.39 721.047C-1241.22 709.511 -1349.79 689.016 -1464.84 650.664ZM637.061 670.967C556.623 700.069 479.774 713.683 394.582 720.201C384.188 721.023 373.794 721.844 363.085 722.691C342.287 724.266 321.475 725.674 300.652 726.889C217.928 732.984 149.067 751.927 85.5308 806.995C77.7146 816.152 69.8984 825.308 61.8455 834.742C54.0293 843.229 46.2131 851.715 38.1599 860.459C-11.0469 931.728 -8.5979 1010.66 -3.12012 1094.62C0.452881 1101.76 4.02612 1108.91 7.70752 1116.27C138.531 1100.05 138.531 1100.05 246.591 1037.09C258.047 1004.25 266.826 977.987 267.57 943.023C251.545 915.267 251.545 915.267 224.259 899.711C194.948 901.23 194.948 901.23 170.121 910.539C161.354 942.101 156.928 958.845 169.445 989.72C173.241 995.75 177.037 1001.78 180.949 1007.99C148.466 997.164 148.466 997.164 129.518 968.74C113.237 924.779 114.323 901.359 126.811 856.398C148.183 827.392 162.698 815.751 196.513 803.611C230.935 801.932 248.159 807.282 278.397 823.914C308.85 852.338 308.85 852.338 332.535 878.055C342.808 868.228 353.08 858.402 363.664 848.277C419.581 800.508 486.596 767.369 561.268 767.066C571.541 767.96 581.813 768.853 592.397 769.773C588.917 875.932 544.075 961.524 473.294 1040.48C483.79 1043.16 494.286 1045.84 505.1 1048.6C538.259 1062.13 538.259 1062.13 547.733 1080.41C548.18 1088.67 548.626 1096.93 549.087 1105.45C550.762 1124.21 550.762 1124.21 552.47 1143.34C549.087 1181.24 549.087 1181.24 532.169 1206.96C496.693 1230.61 472.602 1234.66 429.983 1235.38C402.642 1226.98 379.847 1215.99 354.19 1202.9C354.19 1195.75 354.19 1188.61 354.19 1181.24C382.775 1184.82 411.36 1188.39 440.811 1192.07C454.783 1167.53 454.783 1167.53 462.466 1137.93C449.003 1111 437.507 1098.65 411.035 1084.47C371.017 1083.35 345.38 1096.83 310.88 1116.27C280.92 1165.59 267.62 1216.38 254.712 1271.93C252.792 1279.9 250.874 1287.87 248.896 1296.08C244.222 1315.53 239.645 1335.01 235.087 1354.49C265.776 1355.67 296.42 1356.53 327.121 1357.2C335.691 1357.56 344.261 1357.93 353.091 1358.3C425.181 1359.48 480.536 1342.29 535.668 1294.74C627.64 1203.24 629.548 1071.68 637.978 950.243C644.72 860.285 662.774 779.884 689.845 693.977C693.582 679.571 697.255 665.148 700.673 650.664C678.94 650.664 656.953 663.246 637.061 670.967ZM-1269.95 845.57C-1260.12 917.257 -1216.01 961.351 -1159.81 1004.31C-1129.32 1024.38 -1129.32 1024.38 -1096.71 1040.48C-1089.56 1036.9 -1082.41 1033.33 -1075.05 1029.65C-1112.15 960.885 -1148.22 898.683 -1215.81 856.398C-1245.67 846.194 -1245.67 846.194 -1269.95 845.57ZM386.673 910.539C361.552 941.122 338.151 971.87 321.708 1007.99C325.281 1018.71 328.854 1029.43 332.535 1040.48C413.796 995.506 475.414 952.565 516.604 867.227C516.604 860.08 516.604 852.933 516.604 845.57C456.632 845.57 429.413 870.33 386.673 910.539ZM-392.913 932.195C-417.925 982.221 -442.937 1032.25 -468.706 1083.79C-432.733 1114.1 -432.733 1114.1 -392.913 1137.93C-352.068 1130.86 -329.902 1117.58 -295.465 1094.62C-312.198 1035.29 -340.458 985.098 -371.258 932.195C-378.404 932.195 -385.551 932.195 -392.913 932.195ZM-1583.95 1040.48C-1587.47 1056.6 -1590.33 1072.88 -1592.75 1089.2C-1602.22 1135.52 -1602.22 1135.52 -1631.32 1156.2C-1663.49 1160.03 -1676.44 1155.67 -1703.05 1137.93C-1720.65 1150.07 -1720.65 1150.07 -1735.53 1170.41C-1738.25 1204.26 -1738.25 1204.26 -1735.53 1235.38C-1717.67 1238.96 -1699.8 1242.53 -1681.4 1246.21C-1676.52 1308.4 -1686.21 1328.96 -1724.71 1376.15C-1723.28 1405.94 -1723.28 1405.94 -1713.88 1430.29C-1699.59 1433.86 -1685.29 1437.44 -1670.57 1441.12C-1667.69 1431.33 -1664.82 1421.55 -1661.86 1411.47C-1658.03 1398.7 -1654.21 1385.92 -1650.27 1372.76C-1646.5 1360.08 -1642.73 1347.39 -1638.85 1334.32C-1627.26 1300.35 -1627.26 1300.35 -1605.6 1267.87C-1614.31 1261.39 -1623.02 1254.91 -1632 1248.24C-1659.74 1224.55 -1659.74 1224.55 -1670.57 1192.07C-1641.98 1195.64 -1613.4 1199.22 -1583.95 1202.9C-1580.42 1194.02 -1576.89 1185.14 -1573.25 1176C-1568.52 1164.33 -1563.78 1152.66 -1558.91 1140.64C-1554.26 1129.08 -1549.61 1117.52 -1544.82 1105.61C-1531.48 1076.59 -1517.6 1054.14 -1497.33 1029.65C-1508.73 1015.9 -1508.73 1015.9 -1534.55 1016.79C-1564.1 1015.91 -1564.1 1015.91 -1583.95 1040.48ZM743.983 1018.82C740.47 1052.23 740.47 1052.23 763.608 1074.31C794.053 1114.33 806.011 1155.03 819.776 1202.9C862.654 1197.54 862.654 1197.54 906.397 1192.07C876.621 1244.86 876.621 1244.86 852.259 1257.04C859.158 1286.83 868.076 1314.57 879.328 1342.99C891.779 1375.48 901.004 1406.6 906.397 1441.12C927.836 1435.76 927.836 1435.76 949.708 1430.29C959.111 1405.94 959.111 1405.94 960.535 1376.15C946.155 1358.06 931.715 1340.01 917.225 1322.01C914.518 1286.14 914.518 1286.14 917.225 1257.04C925.934 1254.81 934.644 1252.57 943.617 1250.27C952.773 1245.36 961.929 1240.44 971.363 1235.38C981.089 1202.33 981.089 1202.33 982.19 1170.41C955.392 1154.33 955.392 1154.33 928.052 1137.93C924.479 1141.5 920.906 1145.08 917.225 1148.76C891.964 1149.2 866.692 1149.22 841.432 1148.76C839.464 1137.41 839.464 1137.41 837.456 1125.83C835.641 1115.98 833.827 1106.12 831.958 1095.97C830.199 1086.17 828.44 1076.37 826.628 1066.28C821.612 1038.69 821.612 1038.69 798.121 1018.82C770.148 1017.01 770.148 1017.01 743.983 1018.82ZM-674.431 1040.48C-674.654 1058.12 -674.877 1075.76 -675.107 1093.94C-675.233 1103.86 -675.358 1113.79 -675.488 1124.01C-677.24 1148.39 -677.24 1148.39 -663.603 1159.59C-645.562 1160.03 -627.505 1160.05 -609.465 1159.59C-602.319 1141.72 -595.173 1123.85 -587.81 1105.45C-616.395 1084.01 -644.979 1062.57 -674.431 1040.48ZM-140.495 1074.99C-168.836 1102.71 -168.836 1102.71 -164.857 1135.22C-157.089 1161.34 -157.089 1161.34 -133.051 1170.41C-118.759 1163.27 -104.466 1156.12 -89.7408 1148.76C-89.7408 1116.6 -89.7408 1084.44 -89.7408 1051.3C-114.85 1049.03 -114.85 1049.03 -140.495 1074.99ZM-1475.67 1148.76C-1489.99 1177.39 -1487.55 1199.41 -1487.18 1231.32C-1487.08 1242.18 -1486.98 1253.04 -1486.88 1264.23C-1486.75 1272.58 -1486.63 1280.92 -1486.5 1289.52C-1493.14 1292.29 -1499.79 1295.05 -1506.63 1297.9C-1532.8 1312.9 -1540.47 1324.01 -1554.17 1350.43C-1563.55 1368.52 -1563.55 1368.52 -1573.12 1386.98C-1565.6 1383.88 -1558.07 1380.78 -1550.32 1377.59C-1517.4 1364.7 -1484.21 1353.38 -1450.63 1342.31C-1439.06 1338.49 -1427.49 1334.66 -1415.57 1330.72C-1406.82 1327.85 -1398.07 1324.97 -1389.05 1322.01C-1392.71 1314.04 -1396.36 1306.07 -1400.13 1297.86C-1404.96 1287.29 -1409.79 1276.72 -1414.77 1265.84C-1419.54 1255.41 -1424.31 1244.98 -1429.23 1234.24C-1441.82 1205.98 -1453.58 1177.56 -1464.84 1148.76C-1468.42 1148.76 -1471.99 1148.76 -1475.67 1148.76ZM700.673 1148.76C696.109 1159.45 691.545 1170.14 686.842 1181.16C680.851 1195.17 674.859 1209.19 668.867 1223.2C665.859 1230.25 662.851 1237.3 659.752 1244.56C636.934 1297.9 636.934 1297.9 624.88 1322.01C645.626 1329.02 666.38 1336.01 687.138 1342.99C698.695 1346.88 710.252 1350.78 722.159 1354.79C747.419 1362.94 772.284 1370.19 798.121 1376.15C787.494 1344.27 780.939 1325.53 754.134 1304.41C723.854 1267.29 726.901 1231.99 725.289 1185.18C723.823 1172.51 723.823 1172.51 722.328 1159.59C715.182 1156.01 708.036 1152.44 700.673 1148.76ZM-955.948 1159.59C-951.05 1180.36 -946.071 1201.11 -941.06 1221.85C-938.296 1233.41 -935.533 1244.96 -932.685 1256.87C-924.815 1284.74 -915.857 1307.67 -901.81 1332.84C-867.978 1335.14 -843.184 1335.58 -811.806 1322.01C-783.51 1288.47 -785.545 1257.01 -782.706 1213.73C-839.598 1187.1 -894.324 1171.46 -955.948 1159.59ZM-512.017 1170.41C-529.882 1199 -547.748 1227.59 -566.155 1257.04C-609.032 1253.47 -651.909 1249.89 -696.086 1246.21C-698.542 1266.76 -700.999 1287.3 -703.53 1308.47C-711.989 1344.34 -711.989 1344.34 -728.568 1376.15C-773.692 1400.76 -818.843 1411.11 -869.327 1419.46C-865.754 1462.34 -862.181 1505.22 -858.5 1549.4C-901.377 1576.2 -901.377 1576.2 -945.12 1603.54C-933.489 1633.96 -921.202 1661.7 -905.193 1690.16C-888.774 1727.7 -887.927 1738.84 -901.81 1776.79C-915.636 1802.44 -930.406 1827.43 -945.12 1852.59C-945.12 1859.73 -945.12 1866.88 -945.12 1874.24C-933.061 1881.39 -921.002 1888.54 -908.577 1895.9C-898.402 1901.93 -898.402 1901.93 -888.022 1908.08C-869.601 1919.19 -869.601 1919.19 -847.672 1917.55C-856.131 1949.28 -856.131 1949.28 -864.59 1981C-870.772 2007.31 -870.772 2007.31 -869.327 2047.49C-860.324 2049.49 -851.322 2051.48 -842.047 2053.54C-747.227 2078.85 -747.227 2078.85 -724.297 2113.86C-716.679 2138.59 -711.827 2162.88 -706.913 2188.26C-700.14 2202.91 -693.037 2217.43 -685.258 2231.57C-673.646 2228 -662.033 2224.42 -650.068 2220.74C-609.465 2209.91 -609.465 2209.91 -566.155 2209.91C-551.862 2238.5 -537.57 2267.09 -522.844 2296.54C-486.029 2292.08 -461.925 2282.11 -431.487 2262.02C-392.913 2242.4 -392.913 2242.4 -359.077 2248.49C-327.948 2264.05 -327.948 2264.05 -298.849 2281.65C-274.012 2299.31 -274.012 2299.31 -241.327 2296.54C-225.416 2277.4 -225.416 2277.4 -212.228 2253.23C-203.965 2238.93 -195.702 2224.64 -187.189 2209.91C-128.233 2220.63 -128.233 2220.63 -68.0857 2231.57C-66.5923 2221.91 -65.0988 2212.25 -63.5601 2202.3C-54.5789 2160.9 -45.386 2127.94 -24.7754 2090.8C20.4517 2065.7 65.1006 2055.36 115.983 2047.49C105.264 2004.61 94.5447 1961.73 83.5005 1917.55C101.366 1910.41 119.231 1903.26 137.638 1895.9C152.153 1888.84 166.62 1881.67 180.949 1874.24C175.652 1841.14 165.512 1823.61 147.113 1794.38C130.512 1765.97 126.811 1756.17 126.811 1721.97C139.464 1684.8 157.705 1656.69 180.949 1625.2C168.66 1589.55 159.371 1581.93 125.458 1562.93C115.185 1558.47 104.912 1554 94.3281 1549.4C99.7634 1509.02 105.611 1469.69 115.983 1430.29C109.577 1428.32 103.17 1426.35 96.5698 1424.33C70.3606 1415.99 44.4556 1407 18.5349 1397.8C8.26245 1394.23 -2.01025 1390.66 -12.5942 1386.98C-52.4922 1349.42 -56.3689 1298.63 -68.0857 1246.21C-110.963 1249.78 -153.84 1253.36 -198.017 1257.04C-212.309 1228.45 -226.602 1199.87 -241.327 1170.41C-271.631 1182 -299.06 1194.14 -327.271 1210.34C-367.756 1227.69 -383.466 1226.31 -425.396 1213.73C-455.046 1200.41 -483.309 1185.76 -512.017 1170.41ZM180.949 1159.59C127.352 1177.45 73.7556 1195.32 18.5349 1213.73C21.2148 1229.36 23.8948 1244.99 26.6558 1261.1C28.1631 1269.89 29.6704 1278.69 31.2236 1287.75C38.2336 1312.26 38.2336 1312.26 58.6309 1325.14C89.4197 1334.67 116.426 1334.29 148.466 1332.84C156.026 1310.09 163.443 1287.3 170.798 1264.48C174.943 1251.8 179.089 1239.11 183.36 1226.04C194.993 1192.06 194.993 1192.06 180.949 1159.59ZM-1630.43 1551.26C-1714.04 1630.37 -1805.89 1683.05 -1908.78 1733.48C-1883.56 1758.69 -1860.67 1768.08 -1828.25 1782.88C-1755.66 1818.57 -1699.26 1865.31 -1638.09 1917.55C-1613.96 1937.27 -1589.54 1956.57 -1565 1975.76C-1553.89 1984.55 -1542.78 1993.34 -1531.33 2002.4C-1460.77 2051.03 -1386.24 2077.45 -1300.02 2065.93C-1224.65 2046.26 -1170.12 1995.67 -1118.36 1939.21C-1104.62 1915.91 -1104.62 1915.91 -1096.71 1895.9C-1123.15 1879.94 -1149.62 1864.05 -1176.22 1848.36C-1193.02 1838.18 -1209.63 1827.62 -1225.62 1816.21C-1252.43 1797.74 -1273.51 1787.21 -1306.32 1789.06C-1345.76 1796.97 -1371.01 1802.06 -1399.88 1830.93C-1403.49 1868.83 -1403.49 1868.83 -1399.88 1906.73C-1392.73 1913.87 -1385.59 1921.02 -1378.22 1928.38C-1350.56 1929.17 -1350.56 1929.17 -1324.09 1917.55C-1309.2 1890.74 -1309.2 1890.74 -1302.43 1863.41C-1295.28 1863.41 -1288.14 1863.41 -1280.78 1863.41C-1294.67 1950.62 -1294.67 1950.62 -1319.35 1983.2C-1360.91 1999.19 -1399.41 2001.62 -1443.19 1993.35C-1470.93 1972.37 -1470.93 1972.37 -1486.5 1939.21C-1489.74 1906.37 -1489.08 1874.63 -1486.5 1841.76C-1495.28 1840.95 -1504.06 1840.14 -1513.1 1839.3C-1603.44 1828.58 -1669.77 1803.94 -1746.36 1755.13C-1744.59 1735.59 -1744.59 1735.59 -1735.53 1711.82C-1660.36 1659.27 -1576.61 1635.48 -1486.5 1625.2C-1487.06 1615.4 -1487.06 1615.4 -1487.64 1605.4C-1488.92 1567.68 -1489.7 1536.27 -1476.35 1500.67C-1439.61 1473.95 -1401.29 1470.61 -1356.57 1473.6C-1320.98 1490.62 -1307.35 1505.33 -1291.98 1541.53C-1283.73 1565.65 -1276.43 1589.72 -1269.95 1614.37C-1291.6 1592.71 -1313.26 1571.05 -1334.91 1549.4C-1361.98 1547.59 -1361.98 1547.59 -1389.05 1549.4C-1404.18 1562.07 -1404.18 1562.07 -1401.23 1597.45C-1402.61 1634.3 -1402.61 1634.3 -1389.05 1657.68C-1337.57 1680.97 -1303.01 1680.14 -1248.29 1668.51C-1218.45 1655.85 -1190.51 1640.52 -1162.35 1624.52C-1154.94 1620.44 -1147.54 1616.35 -1139.91 1612.15C-1121.84 1602.16 -1103.85 1592.04 -1085.88 1581.88C-1125.33 1510.21 -1182.69 1460.39 -1253.03 1419.46C-1405.81 1376.57 -1521.85 1448.41 -1630.43 1551.26ZM354.19 1527.74C340.521 1556.29 340.521 1556.29 332.535 1581.88C359.457 1598.64 386.512 1615.04 413.742 1631.29C425.047 1638.39 425.047 1638.39 436.581 1645.65C494.132 1679.49 527.208 1683.75 592.397 1668.51C620.327 1658.41 620.327 1658.41 635.708 1636.02C640.222 1597.22 640.222 1597.22 635.708 1560.23C624.41 1546.82 624.41 1546.82 599.841 1545.34C567.98 1546.65 567.98 1546.65 545.703 1576.47C539.674 1585.4 533.644 1594.34 527.432 1603.54C531.318 1525.81 531.318 1525.81 559.914 1489.17C605.662 1467.25 641.664 1470.32 689.845 1484.43C712.177 1500.67 712.177 1500.67 722.328 1527.74C724.695 1560.43 724.215 1592.5 722.328 1625.2C730.451 1626.13 738.574 1627.07 746.944 1628.03C841.467 1641.01 913.902 1669.9 993.018 1722.65C973.06 1772.81 942.896 1785.71 895.781 1808.13C839.553 1828.72 781.637 1835.53 722.328 1841.76C724.785 1853.15 727.241 1864.54 729.772 1876.27C733.543 1922.29 728.25 1935.95 700.673 1971.7C679.018 1993.35 679.018 1993.35 637.738 1997.41C592.565 1996.43 570.107 1982.85 538.259 1950.04C523.594 1920.71 526.728 1895.8 527.432 1863.41C534.578 1863.41 541.724 1863.41 549.087 1863.41C550.203 1870.11 551.32 1876.81 552.47 1883.72C558.564 1910.68 558.564 1910.68 592.397 1928.38C603.116 1928.38 613.836 1928.38 624.88 1928.38C640.886 1896.37 636.361 1866.2 635.708 1830.93C618.624 1819.87 618.624 1819.87 601.195 1808.6C594.788 1804.45 588.382 1800.31 581.781 1796.03C551.259 1784.29 537.039 1788.57 505.776 1798.45C477.093 1811.41 449.5 1826.04 421.863 1841.08C414.451 1844.98 407.04 1848.88 399.404 1852.9C359.132 1872.54 359.132 1872.54 332.535 1906.73C396.425 1984.99 456.326 2051.59 559.914 2069.15C702.548 2071.02 791.264 1992.13 893.539 1901.35C972.57 1832.3 1048.92 1787.05 1144.6 1744.3C1117.03 1712.36 1086.14 1697.74 1048.51 1679.34C965.664 1635.83 900.457 1578.49 830.604 1516.91C750.316 1449.98 672.245 1399.79 564.313 1405.29C475.849 1416.64 412.987 1461.13 354.19 1527.74ZM-1064.22 1462.77C-1046.36 1484.21 -1028.49 1505.65 -1010.09 1527.74C-992.22 1520.6 -974.355 1513.45 -955.948 1506.09C-959.521 1484.65 -963.094 1463.21 -966.775 1441.12C-1006.03 1438.94 -1030.28 1442.66 -1064.22 1462.77ZM202.604 1441.12C199.031 1462.56 195.458 1484 191.776 1506.09C218.575 1516.81 218.575 1516.81 245.914 1527.74C264.417 1510.16 282.452 1492.08 300.052 1473.6C300.052 1466.45 300.052 1459.31 300.052 1451.95C267.894 1448.37 235.736 1444.8 202.604 1441.12ZM-1126.48 1690.16C-1137.15 1696.19 -1147.81 1702.22 -1158.8 1708.44C-1166.89 1713.13 -1174.99 1717.82 -1183.33 1722.65C-1167.54 1763.99 -1147.96 1777.5 -1108.89 1797.09C-1099.54 1801.98 -1090.18 1806.86 -1080.55 1811.9C-1053.94 1822.7 -1053.94 1822.7 -1029.63 1812.74C-1007.07 1797.96 -1007.07 1797.96 -988.431 1765.96C-984.546 1729.45 -984.755 1707.98 -1001.96 1675.28C-1043.95 1636.29 -1084.54 1666.2 -1126.48 1690.16ZM256.742 1657.68C230.772 1688.13 223.972 1704.8 225.613 1744.98C235.075 1776.75 245.777 1795.47 267.57 1820.1C326.897 1803.37 377.083 1775.11 429.983 1744.3C394.053 1702.38 351.536 1676.58 300.052 1657.68C285.76 1657.68 271.468 1657.68 256.742 1657.68ZM-1648.91 1733.48C-1609.4 1772.99 -1568.26 1767.73 -1514.92 1767.99C-1500.77 1768.14 -1486.62 1768.3 -1472.03 1768.46C-1435.2 1766.14 -1411.07 1760.35 -1378.22 1744.3C-1387.82 1719.01 -1387.82 1719.01 -1420.86 1710.47C-1502.78 1689.44 -1574.15 1694.47 -1648.91 1733.48ZM603.225 1733.48C655.168 1760.35 694.781 1767.68 753.458 1767.99C773.179 1768.22 773.179 1768.22 793.3 1768.46C828.909 1766.07 852.84 1759.65 884.742 1744.3C855.917 1712.73 834.719 1702.14 791.227 1698.79C720.147 1697.7 667.905 1703.62 603.225 1733.48ZM-1010.09 1950.04C-1031.52 1975.05 -1052.96 2000.06 -1075.05 2025.84C-1057.23 2026.13 -1039.41 2026.34 -1021.59 2026.51C-1006.7 2026.7 -1006.7 2026.7 -991.518 2026.89C-967.144 2028.65 -967.144 2028.65 -955.948 2015.01C-955.508 1996.97 -955.485 1978.91 -955.948 1960.87C-973.813 1957.29 -991.679 1953.72 -1010.09 1950.04ZM213.432 1950.04C206.285 1957.19 199.139 1964.33 191.776 1971.7C195.246 1999.88 195.246 1999.88 202.604 2025.84C238.335 2025.84 274.066 2025.84 310.88 2025.84C302.84 2013.33 294.801 2000.82 286.518 1987.94C281.996 1980.9 277.473 1973.87 272.814 1966.62C267.51 1961.15 262.207 1955.68 256.742 1950.04C242.449 1950.04 228.157 1950.04 213.432 1950.04ZM-1710.5 2038.69C-1727.56 2057.95 -1727.56 2057.95 -1723.35 2085.39C-1716.23 2112.85 -1716.23 2112.85 -1696.96 2127.35C-1671.96 2155.61 -1679.35 2184.68 -1681.4 2220.74C-1699.26 2224.32 -1717.13 2227.89 -1735.53 2231.57C-1740.05 2268.1 -1740.05 2268.1 -1735.53 2307.37C-1709.84 2329.12 -1709.84 2329.12 -1681.4 2339.85C-1677.82 2332.71 -1674.25 2325.56 -1670.57 2318.2C-1644.85 2320.9 -1644.85 2320.9 -1616.43 2329.02C-1591.31 2363.4 -1584.07 2407.45 -1573.12 2448.13C-1547.16 2455.49 -1547.16 2455.49 -1518.98 2458.96C-1511.84 2451.81 -1504.69 2444.67 -1497.33 2437.3C-1505.59 2426.58 -1513.85 2415.86 -1522.37 2404.82C-1552.06 2363.57 -1567.92 2322.96 -1583.95 2274.88C-1608.96 2274.88 -1633.97 2274.88 -1659.74 2274.88C-1645.64 2243.42 -1630.41 2222.81 -1605.6 2199.09C-1612.3 2186.58 -1619 2174.07 -1625.9 2161.19C-1648.28 2116.76 -1660.17 2074.38 -1670.57 2025.84C-1693 2023.76 -1693 2023.76 -1710.5 2038.69ZM906.397 2025.84C904.303 2034.59 902.21 2043.34 900.053 2052.36C897.233 2063.93 894.414 2075.5 891.509 2087.42C888.746 2098.85 885.982 2110.28 883.135 2122.06C874.791 2152.57 864.657 2180.86 852.259 2209.91C867.146 2226.61 867.146 2226.61 884.742 2242.4C891.888 2242.4 899.034 2242.4 906.397 2242.4C906.397 2253.12 906.397 2263.84 906.397 2274.88C877.812 2274.88 849.228 2274.88 819.776 2274.88C817.152 2281.95 814.528 2289.01 811.825 2296.29C790.501 2351.89 768.504 2400.16 733.156 2448.13C758.64 2455.58 758.64 2455.58 787.294 2458.96C821.116 2441.31 821.116 2441.31 826.924 2414.63C828.362 2406.04 829.8 2397.44 831.281 2388.58C839.207 2342.08 839.207 2342.08 863.087 2318.2C891.41 2321.74 913.335 2327.08 938.88 2339.85C938.88 2332.71 938.88 2325.56 938.88 2318.2C953.172 2311.05 967.465 2303.9 982.19 2296.54C978.617 2275.1 975.044 2253.66 971.363 2231.57C957.07 2231.57 942.778 2231.57 928.052 2231.57C919.932 2197.73 919.932 2197.73 917.225 2155.77C931.254 2133.85 945.672 2112.17 960.535 2090.8C959.209 2060.53 959.209 2060.53 949.708 2036.66C935.415 2033.09 921.123 2029.52 906.397 2025.84ZM-1562.29 2090.8C-1558.45 2125.35 -1551.96 2133.71 -1524.4 2156.45C-1489.08 2197.95 -1490.44 2228 -1489.08 2281.1C-1489.11 2309.34 -1489.11 2309.34 -1464.84 2329.02C-1462.09 2321.05 -1459.35 2313.08 -1456.51 2304.87C-1452.79 2294.31 -1449.06 2283.74 -1445.22 2272.85C-1441.58 2262.43 -1437.93 2252 -1434.18 2241.26C-1421.75 2210.46 -1406.88 2183.72 -1389.05 2155.77C-1402 2151.08 -1414.96 2146.39 -1428.3 2141.56C-1467.18 2127.08 -1503.53 2109.36 -1540.64 2090.8C-1547.78 2090.8 -1554.93 2090.8 -1562.29 2090.8ZM740.6 2111.11C705.928 2126.88 671.242 2142.02 635.708 2155.77C638.806 2163.41 641.905 2171.04 645.097 2178.91C657.414 2210.04 668.99 2241.36 680.371 2272.85C684.196 2283.42 688.02 2293.99 691.96 2304.87C694.835 2312.84 697.711 2320.81 700.673 2329.02C728.612 2301.08 724.716 2288.57 725.712 2249.84C728.879 2204.91 729.882 2192.2 759.548 2156.45C768.704 2149.08 777.86 2141.71 787.294 2134.12C801.318 2110.66 801.318 2110.66 808.949 2090.8C781.648 2090.8 765.378 2099.7 740.6 2111.11ZM-1314.94 2196.85C-1380.64 2275.43 -1385.98 2384.1 -1393.79 2481.97C-1404.74 2599.01 -1425.38 2705.68 -1464.84 2816.29C-1458.3 2814.14 -1451.76 2811.99 -1445.01 2809.78C-1379.24 2789 -1315.26 2775.7 -1246.94 2766.89C-1237.13 2765.53 -1227.32 2764.18 -1217.22 2762.78C-1171.2 2756.5 -1125.18 2750.75 -1078.98 2745.99C-1000.46 2737.76 -936.641 2729.54 -869.327 2686.35C-859.501 2680.1 -849.675 2673.84 -839.551 2667.4C-786.554 2614.4 -761.963 2547.38 -759.994 2473.34C-760.065 2458.62 -760.194 2443.9 -760.375 2429.18C-760.423 2421.63 -760.472 2414.08 -760.522 2406.3C-760.65 2387.76 -760.844 2369.22 -761.051 2350.68C-894.068 2374.25 -894.068 2374.25 -1010.09 2435.27C-1024.51 2466.82 -1031.74 2488.93 -1031.74 2523.93C-1009.63 2556.88 -1009.63 2556.88 -977.603 2578.07C-952.968 2577.58 -952.968 2577.58 -934.293 2567.24C-923.369 2521.37 -923.369 2521.37 -933.616 2476.56C-937.412 2470.75 -941.209 2464.94 -945.12 2458.96C-881.711 2520.75 -881.711 2520.75 -876.771 2565.21C-880.93 2607.64 -894.15 2623.69 -923.465 2653.87C-956.941 2670.61 -984.038 2667.87 -1020.91 2664.7C-1046.52 2644.48 -1060.55 2628.74 -1075.05 2599.73C-1108.4 2615.67 -1139.21 2634.17 -1170.47 2653.87C-1229.69 2689.63 -1275.55 2708.01 -1345.74 2708.01C-1355.05 2600.96 -1304.41 2517.19 -1237.46 2437.3C-1245.95 2432.84 -1254.44 2428.37 -1263.18 2423.77C-1293.42 2403.61 -1303.65 2396.09 -1313.26 2361.51C-1311.81 2320.88 -1307.58 2294.08 -1286.19 2259.32C-1245.58 2233.93 -1208.33 2236.59 -1161.67 2242.4C-1128.51 2253.23 -1128.51 2253.23 -1107.53 2264.05C-1107.53 2274.77 -1107.53 2285.49 -1107.53 2296.54C-1119.37 2292.52 -1131.21 2288.5 -1143.4 2284.36C-1156.58 2281.23 -1169.75 2278.1 -1183.33 2274.88C-1194.05 2282.03 -1204.77 2289.18 -1215.81 2296.54C-1220.51 2327.09 -1219.61 2343.96 -1204.31 2370.98C-1170.59 2390.56 -1144.4 2380.74 -1107.53 2372.34C-1080.47 2362.08 -1067.51 2356.52 -1053.17 2331.02C-1049.33 2319.35 -1049.33 2319.35 -1045.4 2307.45C-1042.56 2298.92 -1039.72 2290.4 -1036.8 2281.61C-1034.01 2272.69 -1031.23 2263.77 -1028.36 2254.58C-1023.87 2241.33 -1023.87 2241.33 -1019.28 2227.81C-1000.38 2170.7 -1000.38 2170.7 -1010.09 2112.46C-1128.66 2107.51 -1226.15 2110.42 -1314.94 2196.85ZM235.087 2134.12C244.139 2169.66 253.768 2205.01 263.509 2240.37C266.063 2250.43 268.618 2260.48 271.249 2270.84C287.686 2331.73 287.686 2331.73 333.042 2373.48C375.692 2386.76 375.692 2386.76 419.156 2383.16C444.452 2357.19 444.452 2357.19 462.466 2329.02C449.684 2295.75 449.684 2295.75 421.186 2276.24C390.705 2274.49 370.686 2283.64 343.363 2296.54C366.093 2267.21 383.748 2245.14 421.271 2237.66C458.313 2236.68 487.5 2239.42 522.018 2253.23C546.932 2286.45 551.14 2321.08 549.087 2361.51C531.407 2404.31 514.301 2418.46 473.294 2437.3C479.574 2443.82 479.574 2443.82 485.982 2450.46C557.269 2528.28 585.747 2603.26 592.397 2708.01C497.978 2704.86 409.589 2673.83 339.514 2608.4C333.638 2601.96 327.761 2595.53 321.708 2588.9C316.571 2599.4 311.435 2609.89 306.143 2620.71C277.094 2655.43 272.291 2659.55 230.35 2666.05C194.713 2667.58 181.336 2664.89 148.466 2648.45C120.052 2612.93 115.983 2590.92 115.983 2545.59C131.548 2509.72 131.548 2509.72 148.466 2480.62C148.466 2473.47 148.466 2466.32 148.466 2458.96C159.185 2458.96 169.905 2458.96 180.949 2458.96C177.152 2466.78 173.356 2474.59 169.445 2482.65C158.167 2516.48 160.474 2533.48 170.121 2567.24C187.987 2570.82 205.852 2574.39 224.259 2578.07C247.962 2555 247.962 2555 267.57 2523.93C265.899 2483.01 256.85 2450.25 235.087 2415.65C214.139 2403.7 214.139 2403.7 189.112 2396.83C180.046 2393.99 170.981 2391.15 161.641 2388.22C152.157 2385.43 142.673 2382.65 132.901 2379.78C123.459 2376.79 114.017 2373.79 104.289 2370.71C50.9131 2352.55 50.9131 2352.55 -3.12012 2361.51C-10.3684 2518.84 -10.3684 2518.84 63.1987 2651.84C145.158 2725.3 233.682 2736.75 340.354 2748.5C387.696 2753.92 434.887 2760.39 482.091 2766.89C491.39 2768.08 500.689 2769.27 510.27 2770.5C576.046 2779.55 637.626 2795.56 700.673 2816.29C698.389 2808.81 696.105 2801.34 693.752 2793.64C685.044 2765.14 676.407 2736.66 668.19 2708.01C664.464 2695.03 660.737 2682.05 656.897 2668.67C640.527 2602.34 638.634 2534.11 634.375 2466.15C625.856 2350.72 604.007 2254.01 519.988 2169.99C445.256 2112.07 317.392 2079.24 235.087 2134.12ZM-901.81 2134.12C-928.44 2191.01 -944.07 2245.74 -955.948 2307.37C-896.735 2296.37 -839.401 2284.94 -782.706 2264.05C-785.917 2207.78 -785.917 2207.78 -805.715 2156.45C-836.385 2139.07 -867.128 2137.39 -901.81 2134.12ZM40.1902 2155.77C33.0439 2191.51 25.8977 2227.24 18.5349 2264.05C41.3003 2271.33 64.0874 2278.54 86.884 2285.71C105.915 2291.74 105.915 2291.74 125.331 2297.89C158.632 2308.82 158.632 2308.82 191.776 2307.37C179.899 2245.74 164.269 2191.01 137.638 2134.12C103.496 2134.12 72.7317 2146.13 40.1902 2155.77ZM-674.431 2318.2C-674.431 2346.78 -674.431 2375.37 -674.431 2404.82C-660.138 2404.82 -645.846 2404.82 -631.12 2404.82C-606.555 2378.63 -606.555 2378.63 -587.81 2350.68C-594.956 2336.39 -602.102 2322.09 -609.465 2307.37C-650.354 2304.14 -650.354 2304.14 -674.431 2318.2ZM-143.879 2307.37C-151.025 2314.51 -158.171 2321.66 -165.534 2329.02C-167.06 2355.8 -167.06 2355.8 -154.706 2383.16C-122.673 2408.44 -122.673 2408.44 -89.7408 2426.48C-89.7408 2390.74 -89.7408 2355.01 -89.7408 2318.2C-115.697 2310.84 -115.697 2310.84 -143.879 2307.37ZM-468.706 2383.16C-456.604 2408.24 -444.412 2433.27 -432.163 2458.28C-428.73 2465.42 -425.296 2472.56 -421.759 2479.92C-404.231 2519.74 -404.231 2519.74 -371.258 2545.59C-346.246 2491.99 -321.235 2438.39 -295.465 2383.16C-376.567 2329.09 -394.142 2328.93 -468.706 2383.16ZM-1204.98 2502.27C-1241.7 2541.88 -1270.28 2578.53 -1280.78 2632.21C-1222.37 2628.56 -1180.61 2596.03 -1140.02 2556.41C-1100.59 2501.35 -1100.59 2501.35 -1085.88 2437.3C-1131.12 2437.3 -1170.85 2475.13 -1204.98 2502.27ZM321.708 2437.3C342.246 2511.64 383.981 2559.65 440.811 2610.55C467.879 2624.24 486.232 2628.33 516.604 2632.21C500.627 2561.2 456.574 2507.52 398.093 2465.47C362.233 2443.87 362.233 2443.87 321.708 2437.3ZM-631.12 2513.1C-688.267 2580.97 -712.591 2641.53 -710.085 2730.89C-698.066 2849.33 -620.274 2926.32 -544.5 3011.2C-473.716 3091.69 -426.655 3174.41 -382.086 3271.07C-361.829 3240.68 -347.419 3211.37 -332.008 3178.35C-293.868 3101.51 -245.108 3038.75 -186.343 2976.55C-111.235 2896.71 -54.9531 2813.59 -49.1375 2701.24C-54.448 2597.99 -110.784 2529.43 -183.721 2460.91C-188.438 2456.69 -193.156 2452.48 -198.017 2448.13C-247.815 2464.73 -258.436 2503.45 -281.931 2548.29C-286.522 2556.57 -291.115 2564.85 -295.846 2573.38C-321.674 2621.16 -321.674 2621.16 -326.256 2674.17C-314.739 2703.18 -303.895 2726.56 -284.637 2751.32C-258.721 2763.9 -258.721 2763.9 -230.5 2762.15C-205.542 2747.73 -205.541 2747.73 -187.189 2729.66C-192.3 2683.66 -219.31 2662.53 -252.155 2632.21C-209.334 2640.78 -175.518 2647.63 -138.465 2670.79C-113.989 2710.56 -117.106 2749.07 -122.224 2794.63C-125.797 2805.35 -129.37 2816.07 -133.051 2827.12C-153.903 2835.41 -153.903 2835.41 -179.745 2840.65C-188.189 2842.49 -196.634 2844.34 -205.334 2846.24C-231.328 2848.86 -249.102 2845.86 -273.81 2837.95C-274.745 2846.85 -275.68 2855.76 -276.644 2864.93C-286.925 2946.62 -302.536 3018.13 -349.603 3086.99C-382.086 3108.65 -382.086 3108.65 -403.741 3108.65C-407.761 3097.93 -407.761 3097.93 -411.862 3086.99C-423.864 3056.38 -423.864 3056.38 -435.716 3036.19C-471.207 2972.76 -481.29 2909.57 -490.362 2837.95C-497.675 2838.57 -504.989 2839.2 -512.524 2839.85C-590.525 2843.79 -590.525 2843.79 -627.737 2816.97C-647.043 2771.92 -645.737 2733.09 -631.12 2686.35C-599.55 2644.99 -560.891 2642.63 -512.017 2632.21C-520.949 2640.03 -529.882 2647.84 -539.086 2655.9C-568.328 2683.32 -568.328 2683.32 -570.892 2715.45C-568.209 2742.5 -568.209 2742.5 -544.5 2762.15C-512.391 2763.73 -512.391 2763.73 -479.534 2751.32C-451.291 2723.84 -451.291 2723.84 -436.224 2686.35C-439.148 2623.02 -460.476 2578.4 -491.038 2524.61C-495.121 2517.2 -499.203 2509.8 -503.41 2502.17C-513.392 2484.1 -523.517 2466.11 -533.672 2448.13C-574.46 2448.13 -603.296 2485.76 -631.12 2513.1ZM-382.086 2729.66C-416.73 2806.17 -431.322 2883.53 -404.883 2965.39C-395.139 2991.15 -395.139 2991.15 -371.258 3000.37C-332.357 2938.15 -341.721 2848.47 -354.509 2778.69C-360.559 2756.55 -360.559 2756.55 -371.258 2729.66C-374.831 2729.66 -378.404 2729.66 -382.086 2729.66ZM-879.478 2777.04C-888.732 2781.81 -897.985 2786.58 -907.52 2791.5C-920.772 2798.41 -920.772 2798.41 -934.293 2805.46C-948.715 2812.71 -963.146 2819.94 -977.603 2827.12C-950.475 2840.68 -930.747 2838.71 -900.456 2839.3C-831.06 2844.51 -795.953 2874.38 -750.224 2924.57C-743.077 2921 -735.931 2917.42 -728.568 2913.74C-732.351 2905.65 -736.133 2897.55 -740.03 2889.21C-747.421 2873.21 -747.421 2873.21 -754.961 2856.89C-759.86 2846.34 -764.759 2835.79 -769.806 2824.92C-780.366 2800.13 -788.092 2777.59 -793.534 2751.32C-830.623 2751.32 -846.88 2760.08 -879.478 2777.04ZM40.1902 2751.32C31.3542 2772.06 22.5662 2792.82 13.7979 2813.58C8.89893 2825.14 3.99976 2836.7 -1.04761 2848.6C-11.1304 2874.13 -19.1277 2897.82 -24.7754 2924.57C21.542 2905.29 21.542 2905.29 54.8245 2869.67C72.6729 2848.77 72.6729 2848.77 101.138 2842.94C116.861 2842.48 116.861 2842.48 132.901 2842.01C178.601 2842.5 178.601 2842.5 213.432 2816.29C190.652 2807.48 167.868 2798.69 145.083 2789.9C132.395 2785 119.708 2780.1 106.636 2775.05C84.6501 2766.7 62.5017 2758.76 40.1902 2751.32ZM-1085.88 2848.77C-1098.85 2873.99 -1098.85 2873.99 -1107.53 2902.91C-1089.89 2936.74 -1089.89 2936.74 -1063.21 2942.55C-1054.61 2943.98 -1046.01 2945.42 -1037.15 2946.9C-990.655 2954.83 -990.655 2954.83 -966.775 2978.71C-960.008 3007.13 -960.008 3007.13 -955.948 3032.85C-963.094 3032.85 -970.24 3032.85 -977.603 3032.85C-965.492 3073.2 -965.492 3073.2 -934.293 3097.82C-916.14 3094.79 -898.063 3091.23 -880.155 3086.99C-880.155 3069.13 -880.155 3051.26 -880.155 3032.85C-818.319 3028 -796.768 3036.97 -750.224 3076.16C-721.771 3081.59 -721.771 3081.59 -696.086 3076.16C-688.939 3069.02 -681.793 3061.87 -674.431 3054.51C-674.431 3043.79 -674.431 3033.07 -674.431 3022.02C-683.182 3019.93 -691.933 3017.84 -700.95 3015.68C-712.52 3012.86 -724.091 3010.04 -736.012 3007.13C-747.443 3004.37 -758.875 3001.61 -770.652 2998.76C-801.157 2990.42 -829.446 2980.28 -858.5 2967.88C-863.189 2974.81 -867.879 2981.73 -872.711 2988.86C-890.982 3011.2 -890.982 3011.2 -923.465 3022.02C-923.465 2993.44 -923.465 2964.85 -923.465 2935.4C-930.653 2932.77 -937.841 2930.15 -945.247 2927.45C-998.796 2907.12 -1043.34 2888.48 -1085.88 2848.77ZM310.88 2859.6C290.184 2869.47 290.184 2869.47 269.6 2884.64C233.871 2908.42 201 2923.93 159.294 2935.4C155.72 2963.98 152.147 2992.57 148.466 3022.02C130.601 3004.16 112.735 2986.29 94.3281 2967.88C81.9338 2972.24 81.9338 2972.24 69.2893 2976.68C16.7512 2993.6 -36.4219 3007.79 -89.7408 3022.02C-84.3535 3051.87 -84.3535 3051.87 -68.0857 3076.16C-42.8496 3080.7 -42.8496 3080.7 -13.9478 3076.16C-5.46167 3069.02 3.02441 3061.87 11.7678 3054.51C48.2383 3026.72 71.2471 3029.34 115.983 3032.85C115.983 3050.72 115.983 3068.58 115.983 3086.99C137.422 3090.57 158.861 3094.14 180.949 3097.82C195.241 3079.95 209.534 3062.09 224.259 3043.68C217.113 3036.53 209.967 3029.39 202.604 3022.02C206.664 2993.6 206.664 2993.6 213.432 2967.88C230.85 2963.19 230.85 2963.19 248.621 2958.41C293.103 2946.34 293.103 2946.34 332.535 2924.57C341.324 2896.9 341.324 2896.9 343.363 2870.43C332.643 2866.86 321.924 2863.28 310.88 2859.6Z" fill="#EEE8C4"/>
</svg>
