<svg width="16" height="15" viewBox="0 0 16 15" fill="none" xmlns="http://www.w3.org/2000/svg">
<g clip-path="url(#clip0_5156_6643)">
<path fill-rule="evenodd" clip-rule="evenodd" d="M13.6781 2.41315C12.2083 1.06936 10.2542 0.328723 8.17255 0.328125C3.8829 0.328125 0.391623 3.51664 0.38966 7.43683C0.389005 8.68976 0.747622 9.91281 1.42886 10.9912L0.324219 14.6747L4.44962 13.6859C5.58633 14.2526 6.86635 14.5509 8.16863 14.5515H8.1719C12.4609 14.5515 15.9528 11.3624 15.9548 7.44221C15.9561 5.54309 15.1473 3.75635 13.6781 2.41315ZM8.17255 13.3506H8.16994C7.00901 13.3506 5.871 13.0655 4.8776 12.5269L4.64136 12.3989L2.19321 12.9854L2.84697 10.8047L2.69318 10.5811C2.04532 9.64022 1.70371 8.55287 1.70437 7.43683C1.70568 4.17897 4.60799 1.52845 8.17583 1.52845C9.90347 1.52845 11.5277 2.14416 12.7488 3.2608C13.97 4.37803 14.642 5.8623 14.6414 7.44102C14.6394 10.7001 11.7378 13.3506 8.17255 13.3506ZM11.7208 8.92529C11.5264 8.83622 10.5703 8.40642 10.3917 8.34724C10.2137 8.28806 10.0841 8.25817 9.95386 8.43571C9.82363 8.61325 9.45193 9.01376 9.33806 9.13271C9.22485 9.25107 9.11098 9.26602 8.91662 9.17695C8.72226 9.08788 8.09533 8.90078 7.35258 8.29524C6.77474 7.82419 6.38405 7.24256 6.27084 7.06442C6.15763 6.88629 6.25906 6.79064 6.35591 6.70217C6.4436 6.62267 6.55027 6.49474 6.64778 6.39073C6.74594 6.28792 6.77801 6.21379 6.84345 6.09484C6.90824 5.97648 6.87617 5.87246 6.82709 5.7834C6.77801 5.69493 6.38929 4.82038 6.22765 4.46471C6.06994 4.118 5.90961 4.16523 5.78985 4.15985C5.67664 4.15447 5.54706 4.15387 5.41684 4.15387C5.28726 4.15387 5.07654 4.1981 4.89854 4.37624C4.72054 4.55438 4.21796 4.98417 4.21796 5.85812C4.21796 6.73266 4.9149 7.57731 5.01176 7.69567C5.10861 7.81403 6.38274 9.60854 8.33354 10.3779C8.79752 10.5608 9.16006 10.6702 9.44211 10.7521C9.90805 10.8872 10.3321 10.868 10.6672 10.8226C11.0408 10.7718 11.8176 10.3928 11.9799 9.97796C12.1422 9.56311 12.1422 9.20684 12.0931 9.13331C12.0447 9.05859 11.9151 9.01435 11.7208 8.92529Z" fill="white"/>
</g>
<defs>
<clipPath id="clip0_5156_6643">
<rect width="15.7064" height="14.3465" fill="white" transform="translate(0.292969 0.328125)"/>
</clipPath>
</defs>
</svg>
